<?xml version="1.0" encoding="utf-8"?>
<!DOCTYPE svg PUBLIC "-//W3C//DTD SVG 20010904//EN" "http://www.w3.org/TR/2001/REC-SVG-20010904/DTD/svg10.dtd">
<svg version="1.0" xmlns="http://www.w3.org/2000/svg" width="1922pt" height="1282pt" viewBox="0 0 1922 1282" style="" preserveAspectRatio="xMidYMid meet">
<g fill="#B01519FD">
<path d="M 809.351 565.250 C 809.668 567.588 810.230 573.694 810.599 578.821 L 811.269 588.141 807.885 587.583 C 806.023 587.276 801.575 586.548 798.000 585.965 C 786.534 584.094 748.518 576.152 728.000 571.341 C 722.535 570.059 708.680 569.758 641.000 569.447 C 488.540 568.749 371.850 573.872 316.386 583.699 L 307.238 585.320 304.142 597.910 C 300.474 612.824 297.000 629.460 297.000 632.110 C 297.000 633.749 297.781 634.000 302.878 634.000 C 307.120 634.000 309.137 634.459 310.128 635.651 C 311.139 636.868 311.588 641.756 311.836 654.235 L 312.171 671.169 315.336 672.545 C 317.076 673.302 318.275 673.991 318.000 674.076 C 317.725 674.161 317.950 674.305 318.500 674.395 C 319.050 674.485 324.225 676.860 330.000 679.673 C 335.775 682.485 342.975 685.797 346.000 687.033 C 349.025 688.268 353.750 690.283 356.500 691.509 C 372.744 698.752 405.559 708.703 430.500 713.949 C 453.294 718.743 463.388 720.951 476.173 723.939 L 487.847 726.666 489.445 723.083 C 490.323 721.112 492.159 715.299 493.525 710.164 C 498.834 690.197 507.607 676.719 527.000 658.738 C 527.825 657.973 523.366 659.748 517.091 662.682 C 510.817 665.616 505.476 667.809 505.223 667.556 C 504.060 666.393 523.606 646.601 528.896 643.585 C 529.778 643.082 530.725 642.407 531.000 642.085 C 534.235 638.297 550.967 629.186 562.000 625.205 C 584.496 617.088 613.433 616.667 637.949 624.102 C 650.232 627.827 667.480 637.081 675.944 644.487 C 682.737 650.431 693.897 663.264 693.972 665.219 C 694.001 665.958 692.009 665.489 688.500 663.930 C 684.401 662.109 669.548 656.000 669.220 656.000 C 669.032 656.000 672.474 659.596 676.869 663.990 C 693.149 680.270 706.444 704.836 713.002 730.750 L 714.077 735.000 776.539 735.000 L 839.000 735.000 839.000 737.073 C 839.000 738.518 839.530 739.038 840.750 738.787 C 841.831 738.565 842.373 737.709 842.168 736.549 C 841.847 734.726 843.217 734.691 889.168 735.335 C 915.201 735.699 994.213 735.998 1064.750 735.999 C 1137.727 736.000 1193.000 736.378 1193.000 736.878 C 1193.000 737.372 1150.634 738.048 1096.250 738.423 C 1043.038 738.790 963.275 739.512 919.000 740.027 C 874.725 740.543 819.150 741.031 795.500 741.113 C 771.850 741.195 744.040 741.488 733.700 741.765 L 714.900 742.268 715.559 745.384 C 716.344 749.095 723.552 763.865 725.619 766.000 C 727.398 767.837 730.251 767.814 984.500 763.977 C 1189.395 760.885 1254.903 760.000 1278.983 760.000 L 1305.544 760.000 1309.264 756.934 C 1314.246 752.828 1323.367 738.688 1331.140 723.024 L 1337.500 710.207 1333.000 714.558 C 1330.525 716.951 1327.938 718.930 1327.250 718.955 C 1326.563 718.980 1326.000 719.351 1326.000 719.781 C 1326.000 720.791 1320.290 722.957 1319.558 722.225 C 1317.765 720.432 1320.184 707.565 1323.171 703.000 C 1324.071 701.625 1325.846 698.025 1327.114 695.000 C 1330.032 688.040 1341.287 671.184 1348.205 663.412 C 1358.811 651.495 1374.187 639.899 1389.500 632.268 C 1405.173 624.458 1418.046 621.113 1436.500 620.056 C 1457.120 618.875 1447.248 618.934 1369.000 620.458 C 1328.575 621.245 1276.038 622.204 1252.250 622.589 L 1209.000 623.289 1208.868 619.895 L 1208.737 616.500 1208.118 620.000 L 1207.500 623.500 1195.500 623.742 C 1188.900 623.876 1148.850 624.675 1106.500 625.520 C 1064.150 626.364 987.875 627.928 937.000 628.996 C 886.125 630.064 839.117 631.006 832.537 631.089 L 820.575 631.241 819.740 628.370 C 817.514 620.714 816.723 621.327 829.754 620.609 C 871.472 618.310 1164.179 615.996 1390.500 616.176 C 1522.350 616.281 1566.146 616.566 1539.000 617.142 C 1486.830 618.250 1448.645 619.401 1453.500 619.718 C 1461.119 620.217 1472.420 622.217 1478.446 624.134 C 1485.939 626.516 1499.681 633.333 1503.586 636.604 C 1505.936 638.573 1504.953 638.297 1498.500 635.174 C 1487.544 629.871 1481.059 627.465 1470.500 624.785 C 1462.661 622.795 1459.113 622.508 1443.000 622.565 C 1425.899 622.626 1423.819 622.835 1415.500 625.329 C 1404.581 628.603 1390.446 635.430 1383.000 641.026 C 1375.997 646.289 1368.833 653.034 1369.210 654.011 C 1369.369 654.425 1372.452 653.355 1376.060 651.632 C 1404.918 637.854 1417.410 633.665 1434.460 632.049 C 1445.169 631.035 1456.935 631.696 1469.000 633.991 C 1476.287 635.377 1489.718 639.623 1493.628 641.777 C 1499.272 644.886 1507.446 650.666 1510.361 653.610 L 1513.221 656.500 1509.625 655.000 L 1506.029 653.500 1510.195 657.500 C 1518.771 665.736 1524.969 674.298 1527.950 682.027 C 1531.467 691.147 1534.634 706.194 1535.592 718.337 C 1536.111 724.913 1536.683 727.325 1537.830 727.765 C 1538.677 728.090 1549.074 727.794 1560.935 727.106 C 1581.009 725.943 1582.918 725.664 1588.547 723.076 C 1599.426 718.073 1606.371 710.016 1610.038 698.140 C 1611.133 694.596 1611.869 691.535 1611.673 691.340 C 1610.951 690.617 1595.070 689.002 1580.500 688.169 C 1568.227 687.468 1564.733 686.919 1561.283 685.153 C 1553.518 681.176 1553.537 676.476 1561.331 672.937 C 1564.765 671.378 1567.926 671.040 1579.257 671.022 C 1593.111 671.000 1612.653 668.747 1614.433 666.967 C 1615.835 665.565 1612.644 663.462 1604.261 660.263 C 1600.279 658.743 1597.018 657.275 1597.013 657.000 C 1597.009 656.725 1600.148 654.732 1603.991 652.571 C 1608.268 650.165 1611.982 647.191 1613.569 644.900 C 1616.632 640.480 1620.844 627.809 1621.229 621.857 C 1621.481 617.944 1621.209 617.444 1617.259 614.578 L 1613.017 611.500 1613.097 601.500 C 1613.197 588.942 1613.202 589.000 1612.000 589.000 C 1611.397 589.000 1611.000 593.167 1611.000 599.500 C 1611.000 605.275 1610.888 609.997 1610.750 609.993 C 1610.613 609.989 1607.149 608.849 1603.054 607.459 C 1585.281 601.428 1565.605 599.757 1509.500 599.514 C 1484.200 599.404 1460.350 598.987 1456.500 598.586 C 1452.650 598.186 1437.350 596.537 1422.500 594.922 C 1379.798 590.280 1369.153 589.846 1286.500 589.370 C 1243.600 589.124 1207.756 588.940 1206.847 588.961 C 1205.100 589.002 1202.310 581.158 1200.015 569.750 C 1199.255 565.972 1198.368 564.000 1197.429 564.000 C 1196.643 564.000 1196.000 564.481 1196.000 565.069 C 1196.000 566.036 1200.353 584.007 1201.614 588.250 C 1202.109 589.912 1193.438 590.000 1029.317 589.996 C 934.268 589.994 850.731 589.698 843.680 589.338 L 830.861 588.684 833.430 586.302 C 834.844 584.991 836.000 583.315 836.000 582.576 C 836.000 580.556 839.333 580.029 852.185 580.014 C 858.612 580.006 865.137 579.510 866.685 578.910 C 868.836 578.077 865.262 577.900 851.529 578.160 L 833.557 578.500 833.393 581.794 C 833.136 586.967 830.602 589.000 824.410 589.000 C 814.659 589.000 814.343 588.650 813.425 576.818 C 812.984 571.143 812.540 566.163 812.437 565.750 C 812.334 565.338 812.194 564.100 812.125 563.000 C 812.055 561.878 811.292 561.000 810.386 561.000 C 809.064 561.000 808.877 561.767 809.351 565.250 M 817.746 625.734 C 818.342 628.337 818.668 630.728 818.471 631.047 C 818.274 631.366 811.449 631.711 803.306 631.814 C 795.163 631.917 776.969 632.288 762.875 632.639 L 737.251 633.277 739.530 638.888 L 741.810 644.500 753.655 645.152 C 760.170 645.511 770.372 645.901 776.326 646.020 C 784.630 646.184 787.280 646.567 787.700 647.660 C 788.001 648.445 788.079 649.251 787.874 649.452 C 787.668 649.653 778.050 650.349 766.500 651.000 C 754.950 651.651 745.367 652.312 745.204 652.471 C 744.777 652.886 749.346 662.387 750.316 663.100 C 750.764 663.429 760.889 664.016 772.816 664.405 C 784.742 664.793 794.928 665.535 795.450 666.055 C 797.622 668.216 793.596 668.924 775.318 669.594 C 764.767 669.982 755.644 670.602 755.045 670.972 C 753.339 672.027 756.656 678.919 759.366 679.949 C 760.636 680.432 771.012 681.156 782.424 681.558 C 798.779 682.133 803.287 682.584 803.710 683.687 C 804.005 684.457 804.045 685.288 803.798 685.535 C 803.552 685.782 794.026 686.284 782.629 686.652 C 764.228 687.245 761.984 687.498 762.583 688.910 C 762.954 689.785 763.486 691.625 763.765 693.000 C 764.424 696.241 767.286 698.935 771.291 700.084 C 773.049 700.588 787.379 701.000 803.136 701.000 C 833.540 701.000 833.000 700.917 833.000 705.582 C 833.000 707.626 766.581 707.687 761.699 705.648 C 757.069 703.713 754.131 699.363 744.608 680.344 C 725.221 641.626 719.964 627.379 724.430 625.665 C 727.535 624.474 781.162 621.509 806.082 621.152 L 816.663 621.000 817.746 625.734 M 926.000 703.019 C 969.725 703.560 1021.025 704.279 1040.000 704.618 C 1058.975 704.957 1101.275 705.557 1134.000 705.952 C 1178.829 706.492 1149.451 706.710 1014.857 706.834 C 856.884 706.981 836.147 706.826 835.638 705.500 C 834.343 702.125 835.982 700.984 841.356 701.522 C 844.185 701.805 882.275 702.478 926.000 703.019 M 837.800 594.200 C 841.433 597.833 836.727 603.530 832.126 601.068 C 828.211 598.972 829.968 593.000 834.500 593.000 C 835.655 593.000 837.140 593.540 837.800 594.200 "/></g>
<g fill="#000000FD">
<path d="M 593.500 634.672 C 562.535 637.274 536.748 648.876 518.070 668.608 C 505.711 681.664 497.036 697.128 493.957 711.589 C 492.646 717.748 486.505 731.504 482.299 737.702 C 480.567 740.253 480.200 741.505 481.031 742.019 C 481.675 742.417 487.941 743.531 494.957 744.494 L 507.713 746.246 508.334 755.873 C 510.166 784.258 521.921 807.074 544.746 826.550 C 561.666 840.987 587.496 849.216 610.917 847.630 C 634.727 846.017 654.435 837.360 671.299 821.103 C 685.351 807.557 694.504 792.194 698.941 774.708 L 700.770 767.500 712.809 767.220 L 724.848 766.940 720.510 758.720 C 715.952 750.083 714.921 746.920 712.947 735.500 C 710.127 719.188 698.994 693.058 689.091 679.509 C 682.707 670.774 672.327 660.044 665.090 654.697 C 656.959 648.691 642.391 641.594 632.973 639.053 C 625.267 636.974 604.006 633.891 599.500 634.199 C 598.400 634.275 595.700 634.487 593.500 634.672 M 625.000 689.001 C 635.149 692.402 641.829 696.689 650.597 705.429 C 661.047 715.845 666.370 726.036 668.789 740.254 C 670.191 748.493 670.244 751.080 669.170 758.513 C 665.500 783.893 650.237 802.827 626.242 811.766 C 617.331 815.085 600.718 815.952 590.770 813.618 C 572.033 809.220 556.615 797.239 547.625 780.091 C 542.547 770.403 540.681 762.301 540.697 750.000 C 540.718 732.682 546.189 719.181 558.427 706.243 C 567.271 696.893 580.144 689.574 592.303 686.983 C 599.563 685.437 617.702 686.556 625.000 689.001 "/></g>
<g fill="#E00410FD">
<path d="M 848.000 432.957 C 826.992 433.801 818.656 434.296 787.000 436.577 C 744.441 439.643 700.777 444.603 695.330 446.990 C 693.037 447.995 688.377 450.707 684.975 453.017 C 675.887 459.189 656.500 474.923 656.500 476.128 C 656.500 476.699 656.253 476.919 655.950 476.617 C 655.648 476.315 644.966 484.715 632.212 495.284 C 616.740 508.106 613.557 511.006 622.646 504.000 C 640.598 490.163 654.639 479.645 676.415 463.723 C 692.802 451.742 694.807 450.559 699.915 449.861 C 708.285 448.718 758.382 444.225 775.500 443.082 C 783.750 442.531 795.000 441.763 800.500 441.375 C 812.262 440.546 930.058 440.642 954.000 441.500 C 995.651 442.994 1023.143 445.101 1032.748 447.538 C 1042.011 449.888 1053.770 454.563 1052.816 455.517 C 1052.548 455.785 1049.667 455.089 1046.414 453.968 C 1032.309 449.111 1021.762 447.739 984.500 445.917 C 952.666 444.361 810.509 445.459 777.404 447.516 C 747.144 449.397 708.248 452.969 701.392 454.497 C 698.489 455.144 647.459 493.758 590.054 538.746 L 577.607 548.500 608.554 549.257 C 696.602 551.410 698.575 551.643 630.250 551.827 C 590.536 551.934 566.000 551.640 566.000 551.057 C 566.000 550.538 567.013 549.365 568.250 548.449 C 570.393 546.865 570.095 546.813 562.000 547.376 C 557.325 547.701 525.375 549.998 491.000 552.480 C 456.625 554.962 406.675 558.568 380.000 560.494 C 310.253 565.527 317.275 564.627 314.450 568.897 C 312.075 572.485 307.653 583.986 308.372 584.705 C 308.579 584.913 313.868 584.202 320.125 583.125 C 374.735 573.730 491.299 568.761 641.000 569.447 C 708.680 569.758 722.535 570.059 728.000 571.341 C 748.518 576.152 786.534 584.094 798.000 585.965 C 801.575 586.548 806.023 587.276 807.885 587.583 L 811.269 588.141 810.599 578.821 C 810.230 573.694 809.685 567.700 809.388 565.500 L 808.848 561.500 791.174 561.500 C 773.897 561.500 773.287 561.428 764.000 558.277 C 751.155 553.920 737.536 550.443 725.500 548.446 C 720.000 547.534 715.195 546.604 714.822 546.379 C 714.078 545.931 730.366 522.113 743.803 504.000 C 761.587 480.026 776.011 463.668 784.064 458.339 C 786.051 457.024 790.338 455.513 793.589 454.982 C 817.414 451.091 907.567 448.581 972.500 450.002 C 1022.340 451.092 1025.270 451.304 1037.000 454.677 C 1049.214 458.189 1059.556 464.088 1075.500 476.639 C 1089.672 487.795 1119.861 511.170 1150.000 534.323 C 1175.749 554.104 1178.141 556.077 1177.758 557.227 C 1176.926 559.721 1167.246 560.912 1147.450 560.956 C 1136.423 560.980 1126.973 561.396 1126.450 561.879 C 1125.928 562.363 1123.809 563.299 1121.742 563.959 C 1119.676 564.620 1117.522 566.024 1116.957 567.080 C 1116.308 568.292 1114.866 569.000 1113.044 569.000 C 1110.654 569.000 1110.046 569.513 1109.503 571.986 C 1108.732 575.497 1104.279 579.000 1100.587 579.000 C 1097.266 579.000 1092.291 574.601 1091.490 570.955 C 1091.113 569.238 1091.481 566.970 1092.437 565.123 C 1093.296 563.460 1094.000 561.964 1094.000 561.800 C 1094.000 561.635 1030.526 561.500 952.947 561.500 L 811.893 561.500 812.367 565.000 C 812.628 566.925 813.162 572.697 813.555 577.826 C 814.218 586.476 814.446 587.219 816.700 588.076 C 818.037 588.584 819.846 589.000 820.720 589.000 C 822.113 589.000 822.092 588.759 820.545 587.050 C 819.292 585.665 818.892 583.928 819.166 581.058 C 819.378 578.836 819.090 576.844 818.526 576.634 C 817.886 576.394 817.988 575.733 818.798 574.875 C 820.494 573.078 864.040 572.304 868.480 573.992 L 871.358 575.087 869.153 577.293 C 867.136 579.311 865.646 579.553 851.724 580.116 C 843.351 580.454 836.388 580.792 836.250 580.866 C 836.113 580.940 836.000 581.657 836.000 582.460 C 836.000 583.262 834.844 584.991 833.430 586.302 L 830.861 588.684 843.680 589.338 C 850.731 589.698 934.286 589.994 1029.357 589.996 C 1167.224 589.999 1202.120 589.747 1201.751 588.750 C 1201.497 588.063 1199.995 582.167 1198.414 575.650 L 1195.539 563.799 1191.770 562.291 C 1189.696 561.462 1188.000 560.382 1188.000 559.891 C 1188.000 559.401 1187.157 559.000 1186.127 559.000 C 1185.098 559.000 1178.685 554.579 1171.877 549.176 C 1165.070 543.773 1148.025 530.360 1134.000 519.369 C 1119.975 508.377 1103.775 495.670 1098.000 491.129 C 1092.225 486.589 1079.982 476.991 1070.794 469.801 L 1054.088 456.729 1057.685 452.339 C 1059.664 449.925 1061.033 447.700 1060.728 447.395 C 1059.520 446.186 1042.253 440.920 1036.554 440.021 C 1026.981 438.512 1002.364 436.080 980.030 434.438 C 956.069 432.676 877.033 431.789 848.000 432.957 "/></g>
<g fill="#000000FD">
<path d="M 1435.000 635.681 C 1406.262 637.798 1383.382 650.857 1360.383 678.269 C 1350.627 689.897 1343.267 701.295 1334.730 718.000 C 1322.895 741.156 1315.137 753.387 1309.445 757.865 L 1307.085 759.721 1314.120 760.883 C 1320.844 761.993 1321.577 761.909 1330.735 758.976 C 1336.004 757.288 1340.856 756.114 1341.517 756.368 C 1342.179 756.622 1343.012 759.006 1343.370 761.665 C 1344.429 769.551 1350.218 784.908 1355.536 793.941 C 1364.346 808.907 1383.140 825.749 1398.717 832.638 C 1401.745 833.978 1408.110 836.258 1412.861 837.705 C 1420.625 840.070 1423.171 840.345 1438.000 840.418 C 1452.233 840.489 1455.645 840.187 1462.837 838.221 C 1509.120 825.566 1540.218 780.838 1535.037 734.375 C 1534.446 729.081 1533.693 724.313 1533.364 723.779 C 1533.034 723.246 1533.309 721.792 1533.974 720.549 C 1536.097 716.581 1531.422 691.534 1526.468 680.331 C 1521.649 669.436 1507.116 653.978 1494.872 646.726 C 1480.082 637.965 1458.368 633.960 1435.000 635.681 M 1458.516 682.473 C 1478.012 689.018 1492.434 703.101 1499.770 722.758 C 1503.464 732.654 1504.063 749.567 1501.103 760.357 C 1495.820 779.613 1483.422 794.372 1465.754 802.438 C 1455.591 807.078 1449.038 808.436 1437.500 808.292 C 1419.725 808.070 1406.474 802.425 1393.402 789.504 C 1379.695 775.956 1373.213 759.420 1374.239 740.619 C 1375.865 710.827 1398.280 685.254 1427.347 680.030 C 1435.525 678.560 1450.310 679.719 1458.516 682.473 "/></g>
<g fill="#696969FD">
<path d="M 673.000 819.761 C 647.537 844.833 611.922 853.816 577.500 843.847 C 568.185 841.150 553.360 833.856 548.180 829.422 C 545.884 827.456 544.277 826.557 544.609 827.424 C 545.146 828.823 543.155 829.001 526.857 829.008 C 506.004 829.018 421.545 831.458 388.500 833.006 C 355.898 834.533 335.474 836.424 334.496 838.006 C 332.686 840.935 394.219 844.289 490.000 846.482 C 502.925 846.778 522.725 847.244 534.000 847.517 C 664.317 850.676 1149.111 851.737 1311.500 849.220 C 1511.501 846.119 1612.000 842.371 1612.000 838.012 C 1612.000 835.747 1539.778 831.262 1497.648 830.911 C 1487.962 830.830 1485.076 830.520 1485.932 829.652 C 1486.556 829.018 1483.564 830.158 1479.284 832.185 C 1475.003 834.212 1467.900 836.841 1463.500 838.027 C 1453.531 840.715 1434.491 841.707 1424.063 840.083 C 1414.164 838.540 1399.211 833.499 1392.437 829.420 C 1389.422 827.604 1387.263 826.617 1387.639 827.225 C 1388.136 828.029 1378.265 828.149 1351.411 827.664 C 1210.739 825.125 740.254 824.402 682.500 826.636 L 666.500 827.254 673.500 819.815 L 680.500 812.376 673.000 819.761 "/></g>
<g fill="#696969FD">
<path d="M 839.000 462.478 C 815.276 463.734 800.829 464.838 800.227 465.440 C 799.924 465.743 803.743 488.243 804.593 491.157 C 805.004 492.568 805.796 492.329 809.935 489.544 C 814.193 486.678 815.888 486.192 823.647 485.614 C 855.540 483.234 955.735 482.198 980.274 483.993 C 994.584 485.040 998.372 486.294 1007.667 493.061 C 1017.608 500.299 1038.933 517.460 1038.967 518.250 C 1038.985 518.663 987.475 519.000 924.500 519.000 C 833.560 519.000 810.003 519.257 810.013 520.250 C 810.021 520.938 811.596 530.020 813.513 540.432 C 815.431 550.845 817.000 559.733 817.000 560.182 C 817.000 560.632 873.025 561.000 941.500 561.000 C 1009.975 561.000 1066.000 560.647 1066.000 560.216 C 1066.000 558.896 1071.660 556.000 1074.238 556.000 C 1077.743 556.000 1077.965 555.354 1075.872 551.250 C 1074.843 549.230 1074.000 546.997 1074.000 546.289 C 1074.000 545.580 1073.663 544.999 1073.250 544.999 C 1072.838 544.998 1071.150 543.835 1069.500 542.413 C 1064.948 538.493 1058.294 532.884 1050.136 526.092 L 1042.771 519.960 1052.286 520.082 L 1061.801 520.204 1067.052 532.117 C 1069.940 538.670 1072.459 543.875 1072.650 543.684 C 1073.018 543.315 1067.684 530.756 1061.529 517.500 C 1059.486 513.100 1054.514 501.850 1050.479 492.500 C 1038.294 464.261 1039.541 466.479 1035.100 465.148 C 1025.305 462.214 1014.514 461.799 940.000 461.494 C 886.643 461.275 856.088 461.573 839.000 462.478 M 1067.022 557.826 L 1064.081 560.000 977.790 559.839 C 884.138 559.665 887.020 559.487 1038.000 556.114 C 1073.469 555.322 1070.634 555.155 1067.022 557.826 "/></g>
<g fill="#C5B9A1FD">
<path d="M 1427.486 681.393 C 1398.528 686.911 1377.811 709.734 1375.402 738.769 C 1371.995 779.853 1408.654 813.594 1448.993 806.501 C 1472.390 802.388 1490.977 786.827 1498.710 764.881 C 1502.145 755.132 1502.951 739.710 1500.559 729.500 C 1495.464 707.751 1478.423 689.722 1456.709 683.108 C 1447.786 680.390 1436.291 679.716 1427.486 681.393 M 1454.998 685.657 C 1473.763 691.008 1489.189 705.560 1495.665 724.023 C 1499.086 733.775 1499.892 747.567 1497.608 757.283 C 1489.199 793.055 1450.718 813.682 1417.224 800.370 C 1407.653 796.567 1401.406 792.293 1394.327 784.708 C 1372.065 760.849 1372.985 724.296 1396.449 700.430 C 1397.027 699.842 1400.265 697.326 1403.644 694.840 C 1418.213 684.118 1437.503 680.669 1454.998 685.657 "/></g>
<g fill="#C5B9A1FD">
<path d="M 593.347 688.095 C 570.498 691.912 549.403 711.545 543.528 734.460 C 541.534 742.240 541.542 758.815 543.545 766.540 C 549.016 787.643 565.558 804.887 586.777 811.608 C 594.133 813.938 610.206 814.473 618.665 812.670 C 645.437 806.964 665.770 783.633 668.515 755.471 C 669.755 742.744 665.748 727.466 658.094 715.741 C 644.242 694.523 619.108 683.791 593.347 688.095 M 617.500 691.499 C 648.860 698.061 670.122 729.049 664.690 760.277 C 660.501 784.358 643.489 803.120 620.517 808.996 C 589.742 816.867 558.790 800.451 547.806 770.432 C 546.183 765.995 545.528 761.509 545.209 752.633 C 544.820 741.804 545.018 740.041 547.478 732.480 C 554.264 711.617 571.255 696.079 592.277 691.511 C 600.536 689.717 608.961 689.713 617.500 691.499 "/></g>
<g fill="#696969FD">
<path d="M 1429.500 684.633 C 1424.587 685.394 1416.892 688.083 1410.500 691.272 C 1402.118 695.455 1389.427 708.408 1385.241 717.053 C 1374.116 740.032 1377.921 766.017 1395.102 784.394 C 1413.971 804.576 1440.731 809.306 1465.883 796.905 C 1492.076 783.990 1504.719 752.794 1495.194 724.581 C 1489.181 706.768 1474.078 692.318 1455.328 686.437 C 1450.380 684.885 1434.866 683.801 1429.500 684.633 M 1454.217 694.985 C 1467.126 698.973 1479.188 709.382 1484.941 721.500 C 1498.465 749.985 1483.627 783.972 1453.660 793.154 C 1447.954 794.902 1445.016 795.175 1435.936 794.801 C 1425.609 794.376 1424.624 794.141 1416.700 790.214 C 1397.727 780.813 1387.498 764.584 1387.570 744.000 C 1387.637 724.684 1396.504 709.215 1413.336 699.047 C 1423.601 692.847 1441.527 691.066 1454.217 694.985 "/></g>
<g fill="#696969FD">
<path d="M 590.800 692.549 C 580.207 695.117 572.137 699.807 563.406 708.470 C 543.910 727.813 539.785 753.282 552.166 777.879 C 565.414 804.201 596.773 816.830 624.600 807.049 C 649.907 798.155 666.747 772.531 664.676 746.069 C 662.672 720.461 643.835 698.415 618.947 692.549 C 611.065 690.691 598.460 690.691 590.800 692.549 M 614.566 700.076 C 634.997 703.780 651.148 719.975 655.639 741.260 C 660.116 762.479 648.275 786.686 628.738 796.252 C 599.676 810.482 565.349 796.278 555.977 766.145 C 553.619 758.566 553.344 745.053 555.390 737.368 C 562.264 711.551 588.090 695.276 614.566 700.076 "/></g>
<g fill="#E00410FD">
<path d="M 1199.000 564.307 C 1199.000 565.932 1201.414 576.268 1203.190 582.250 C 1204.629 587.096 1205.661 588.989 1206.847 588.961 C 1207.756 588.940 1243.600 589.124 1286.500 589.370 C 1369.153 589.846 1379.798 590.280 1422.500 594.922 C 1437.350 596.537 1452.650 598.186 1456.500 598.586 C 1460.350 598.987 1484.200 599.404 1509.500 599.514 C 1565.605 599.757 1585.281 601.428 1603.054 607.459 C 1607.149 608.849 1610.613 609.989 1610.750 609.993 C 1610.888 609.997 1610.999 605.163 1610.998 599.250 L 1610.996 588.500 1606.748 585.859 C 1596.813 579.683 1590.462 577.550 1579.000 576.537 C 1575.425 576.221 1568.450 575.532 1563.500 575.007 C 1542.057 572.732 1481.048 569.745 1420.500 568.005 C 1342.854 565.774 1199.000 563.372 1199.000 564.307 "/></g>
<g fill="#D9D9D9FD">
<path d="M 591.105 701.583 C 583.042 703.751 576.257 707.807 569.498 714.500 C 539.231 744.470 556.490 795.481 598.763 800.993 C 628.785 804.907 656.000 780.899 656.000 750.500 C 656.000 737.054 650.847 724.854 641.000 714.987 C 633.738 707.709 627.205 703.809 618.465 701.533 C 611.172 699.633 598.266 699.657 591.105 701.583 M 577.040 746.567 C 598.243 750.332 598.387 751.586 578.000 754.942 C 570.575 756.165 563.755 757.370 562.844 757.620 C 561.572 757.970 561.031 757.145 560.510 754.059 C 559.811 749.923 560.612 744.000 561.870 744.000 C 562.261 744.000 569.087 745.155 577.040 746.567 M 649.800 750.262 C 650.021 754.491 649.728 756.167 648.701 756.561 C 647.930 756.857 641.720 756.171 634.900 755.038 C 617.823 752.200 617.815 752.198 618.194 750.231 C 618.452 748.890 621.140 748.078 631.010 746.359 C 637.880 745.163 644.850 744.255 646.500 744.342 C 649.430 744.496 649.507 744.634 649.800 750.262 M 611.285 706.750 C 611.507 707.163 610.538 714.363 609.133 722.750 C 606.950 735.782 606.318 738.000 604.789 738.000 C 603.805 738.000 603.000 737.651 603.000 737.225 C 603.000 736.798 601.871 730.012 600.491 722.144 C 599.111 714.276 598.237 707.425 598.550 706.920 C 599.227 705.823 610.705 705.670 611.285 706.750 M 587.495 727.165 C 597.131 740.646 597.610 741.505 596.048 742.470 C 595.206 742.991 573.983 728.922 569.643 724.967 C 568.797 724.196 576.533 715.000 578.028 715.000 C 578.453 715.000 582.713 720.474 587.495 727.165 M 607.016 763.750 C 607.024 764.163 608.146 770.800 609.509 778.500 C 610.871 786.200 611.989 793.063 611.993 793.750 C 611.998 794.619 610.070 795.000 605.667 795.000 C 602.183 795.000 599.117 794.783 598.852 794.519 C 598.499 794.165 603.223 764.885 603.897 763.250 C 604.154 762.626 607.002 763.083 607.016 763.750 M 636.863 719.360 L 641.141 723.720 637.321 726.687 C 630.143 732.262 615.979 742.000 615.048 742.000 C 614.536 742.000 613.844 741.556 613.508 741.013 C 612.799 739.866 629.989 715.114 631.542 715.046 C 632.115 715.021 634.509 716.962 636.863 719.360 M 596.401 761.121 C 596.280 762.825 580.299 785.350 578.846 785.864 C 577.443 786.360 569.873 778.844 570.221 777.301 C 570.594 775.646 594.177 758.886 595.478 759.350 C 596.040 759.551 596.455 760.348 596.401 761.121 M 640.938 776.613 C 641.478 777.143 632.877 786.000 631.822 786.000 C 631.404 786.000 627.012 780.291 622.062 773.314 C 609.904 756.174 610.867 755.144 627.806 767.172 C 634.788 772.129 640.697 776.378 640.938 776.613 M 610.000 746.000 C 612.398 748.398 612.567 751.746 610.443 754.777 C 608.153 758.047 601.640 757.907 599.435 754.541 C 597.526 751.627 598.274 746.527 600.828 745.036 C 603.591 743.424 607.874 743.874 610.000 746.000 M 638.896 760.492 C 643.513 761.298 647.498 762.165 647.751 762.418 C 648.609 763.275 644.703 772.090 643.597 771.794 C 641.690 771.283 625.082 759.538 625.040 758.671 C 625.018 758.214 626.238 758.108 627.750 758.434 C 629.263 758.760 634.278 759.687 638.896 760.492 M 595.541 782.709 C 594.636 788.017 593.691 792.691 593.440 793.097 C 592.819 794.102 584.902 790.907 584.331 789.420 C 584.079 788.763 586.692 784.285 590.138 779.467 C 593.584 774.650 596.579 771.237 596.794 771.883 C 597.010 772.529 596.446 777.401 595.541 782.709 M 578.511 737.317 C 582.190 739.966 585.018 742.316 584.794 742.539 C 584.268 743.065 563.139 739.472 562.397 738.730 C 562.087 738.420 562.766 736.057 563.906 733.479 L 565.980 728.791 568.901 730.645 C 570.508 731.665 574.832 734.667 578.511 737.317 M 622.532 709.449 C 624.439 710.246 626.000 711.415 626.000 712.047 C 626.000 712.898 617.796 725.453 614.324 729.917 C 612.973 731.653 613.075 727.557 614.605 718.569 C 616.551 707.141 616.673 707.001 622.532 709.449 M 593.389 709.750 C 594.457 713.323 597.085 730.248 596.641 730.693 C 596.112 731.221 584.004 714.019 583.834 712.500 C 583.719 711.466 589.594 708.133 591.683 708.048 C 592.333 708.022 593.101 708.788 593.389 709.750 M 620.800 779.947 C 624.210 784.868 627.000 789.106 627.000 789.365 C 627.000 789.623 624.936 790.623 622.413 791.586 C 616.809 793.726 616.738 793.639 615.115 782.711 C 614.444 778.195 613.664 773.713 613.380 772.750 C 612.236 768.861 614.924 771.469 620.800 779.947 M 576.579 765.750 C 571.672 769.188 567.296 772.000 566.854 772.000 C 565.876 772.000 563.330 767.230 562.849 764.497 C 562.539 762.731 563.499 762.325 571.500 760.841 C 586.381 758.080 586.862 758.546 576.579 765.750 M 645.348 731.750 C 648.877 738.688 649.022 738.515 638.101 740.433 C 632.636 741.393 627.418 742.026 626.504 741.839 C 625.430 741.620 627.967 739.306 633.671 735.303 C 638.527 731.895 642.826 729.082 643.224 729.053 C 643.623 729.024 644.578 730.238 645.348 731.750 "/></g>
<g fill="#D9D9D9FD">
<path d="M 1428.056 694.090 C 1414.836 696.683 1399.324 708.414 1393.622 720.131 C 1388.259 731.151 1386.523 744.876 1389.085 756.000 C 1392.221 769.613 1403.015 782.989 1416.000 789.352 C 1436.045 799.174 1458.215 795.565 1474.247 779.872 C 1485.835 768.527 1491.005 753.498 1488.950 737.129 C 1487.411 724.873 1482.197 715.024 1472.617 706.276 C 1460.674 695.370 1444.327 690.900 1428.056 694.090 M 1443.148 772.077 C 1444.605 780.560 1445.596 787.710 1445.349 787.966 C 1444.676 788.666 1433.265 788.593 1432.553 787.884 C 1431.929 787.262 1436.664 758.353 1437.651 756.755 C 1439.291 754.103 1440.770 758.225 1443.148 772.077 M 1411.750 740.079 C 1423.849 742.089 1426.000 742.715 1426.000 744.223 C 1426.000 745.200 1425.651 746.000 1425.225 746.000 C 1424.798 746.000 1418.012 747.129 1410.144 748.509 C 1402.276 749.889 1395.425 750.763 1394.920 750.450 C 1393.853 749.791 1393.660 738.673 1394.698 737.636 C 1395.082 737.252 1395.869 737.112 1396.448 737.325 C 1397.026 737.538 1403.913 738.777 1411.750 740.079 M 1443.859 699.892 C 1444.992 700.610 1444.859 702.984 1443.060 714.127 C 1439.335 737.207 1437.529 737.411 1433.976 715.156 C 1432.029 702.966 1431.897 700.679 1433.093 699.922 C 1434.890 698.784 1442.079 698.764 1443.859 699.892 M 1430.505 753.007 C 1430.847 753.562 1426.981 759.841 1421.913 766.962 C 1411.698 781.315 1411.995 781.175 1406.060 774.415 C 1404.198 772.295 1403.218 770.382 1403.729 769.871 C 1405.302 768.298 1428.478 752.058 1429.191 752.028 C 1429.571 752.013 1430.162 752.453 1430.505 753.007 M 1421.483 721.090 C 1426.167 727.687 1430.000 733.488 1430.000 733.983 C 1430.000 734.477 1429.562 735.153 1429.027 735.483 C 1427.920 736.168 1403.063 719.013 1403.025 717.538 C 1402.987 716.079 1411.213 708.013 1412.148 708.592 C 1412.597 708.869 1416.798 714.494 1421.483 721.090 M 1483.000 743.333 C 1483.000 746.817 1482.792 749.874 1482.538 750.128 C 1482.285 750.382 1475.199 749.423 1466.793 747.996 C 1455.060 746.006 1451.438 745.037 1451.205 743.828 C 1450.963 742.569 1452.865 741.915 1460.701 740.563 C 1466.091 739.633 1472.300 738.499 1474.500 738.043 C 1483.038 736.274 1483.000 736.250 1483.000 743.333 M 1461.503 760.556 C 1468.101 765.262 1473.664 769.578 1473.864 770.148 C 1474.303 771.396 1467.071 779.000 1465.445 779.000 C 1464.542 779.000 1451.639 761.773 1447.696 755.304 C 1446.880 753.965 1447.544 752.000 1448.812 752.000 C 1449.193 752.000 1454.904 755.850 1461.503 760.556 M 1469.792 712.288 C 1472.106 714.646 1474.000 716.879 1474.000 717.249 C 1474.000 717.802 1453.612 732.721 1449.243 735.366 C 1448.493 735.820 1447.752 735.516 1447.405 734.613 C 1446.877 733.237 1463.583 708.000 1465.023 708.000 C 1465.331 708.000 1467.477 709.930 1469.792 712.288 M 1443.046 738.836 C 1448.207 743.015 1444.087 751.685 1437.500 750.509 C 1433.873 749.861 1432.000 747.580 1432.000 743.809 C 1432.000 738.000 1438.436 735.103 1443.046 738.836 M 1455.717 702.636 C 1458.072 703.536 1460.000 704.687 1460.000 705.195 C 1460.000 706.479 1447.677 723.902 1446.731 723.956 C 1446.308 723.980 1446.184 722.988 1446.455 721.750 C 1446.726 720.513 1447.681 715.338 1448.578 710.250 C 1449.474 705.163 1450.483 701.000 1450.820 701.000 C 1451.157 701.000 1453.361 701.736 1455.717 702.636 M 1410.974 758.545 C 1406.313 761.870 1401.955 764.923 1401.288 765.330 C 1399.938 766.155 1395.607 758.678 1396.275 756.675 C 1396.660 755.518 1413.625 752.056 1417.474 752.350 C 1418.842 752.454 1416.844 754.358 1410.974 758.545 M 1427.009 701.750 C 1427.014 702.163 1427.846 707.338 1428.858 713.250 C 1429.871 719.163 1430.392 724.000 1430.017 724.000 C 1429.312 724.000 1417.000 706.605 1417.000 705.609 C 1417.000 704.849 1424.187 701.099 1425.750 701.044 C 1426.438 701.020 1427.004 701.338 1427.009 701.750 M 1429.163 775.342 C 1428.149 781.211 1427.061 786.273 1426.743 786.590 C 1426.426 786.907 1424.071 786.240 1421.509 785.107 C 1418.312 783.693 1417.087 782.648 1417.599 781.774 C 1421.071 775.848 1430.111 763.777 1430.663 764.330 C 1430.851 764.518 1430.176 769.473 1429.163 775.342 M 1418.533 735.800 C 1417.587 736.746 1396.000 732.577 1396.000 731.448 C 1396.000 730.038 1398.526 723.796 1399.479 722.850 C 1399.839 722.492 1404.362 725.172 1409.529 728.804 C 1414.697 732.437 1418.748 735.585 1418.533 735.800 M 1454.963 774.000 L 1461.039 782.500 1456.284 784.715 C 1453.669 785.933 1451.235 786.608 1450.874 786.215 C 1450.248 785.531 1447.000 767.684 1447.000 764.926 C 1447.000 763.093 1447.896 764.113 1454.963 774.000 M 1471.459 753.573 C 1476.387 754.435 1480.747 755.344 1481.149 755.592 C 1481.919 756.068 1479.448 762.836 1477.918 764.439 C 1477.116 765.280 1460.738 755.002 1459.380 752.806 C 1458.657 751.636 1461.370 751.809 1471.459 753.573 M 1479.315 725.534 C 1482.425 732.057 1482.372 732.105 1470.000 734.000 C 1465.875 734.632 1461.659 735.387 1460.632 735.679 C 1456.988 736.714 1459.586 734.042 1468.000 728.098 C 1472.675 724.796 1476.754 722.073 1477.065 722.047 C 1477.375 722.021 1478.388 723.590 1479.315 725.534 "/></g>
<g fill="#94959CFD">
<path d="M 858.638 484.049 C 818.814 485.316 815.696 485.667 809.953 489.532 C 807.229 491.365 805.000 492.370 805.000 491.766 C 805.000 491.161 804.782 490.885 804.515 491.152 C 804.248 491.418 805.330 498.581 806.919 507.068 C 808.509 515.556 809.852 521.713 809.905 520.750 C 809.995 519.094 816.155 519.000 924.500 519.000 C 987.475 519.000 1038.985 518.663 1038.967 518.250 C 1038.933 517.460 1017.608 500.299 1007.667 493.061 C 998.372 486.294 994.584 485.040 980.274 483.993 C 965.723 482.928 892.809 482.962 858.638 484.049 "/></g>
<g fill="#D9D9D9FD">
<path d="M 894.700 450.585 C 894.590 450.669 887.525 451.013 879.000 451.350 C 856.456 452.241 857.953 452.102 861.500 452.974 C 863.818 453.544 863.086 453.726 858.285 453.775 C 854.867 453.810 851.535 454.169 850.881 454.574 C 850.131 455.037 849.955 454.882 850.405 454.155 C 850.797 453.520 852.468 453.000 854.118 453.000 C 855.784 453.000 856.854 452.572 856.523 452.038 C 856.196 451.509 854.032 451.312 851.714 451.601 C 849.397 451.889 842.072 452.304 835.438 452.522 C 828.803 452.740 822.616 453.162 821.688 453.459 C 820.759 453.757 819.325 454.211 818.500 454.469 C 817.675 454.726 817.000 454.453 817.000 453.862 C 817.000 453.247 816.250 453.075 815.250 453.461 C 814.288 453.832 810.575 454.344 807.000 454.599 C 797.685 455.263 788.713 457.011 787.183 458.459 C 786.459 459.144 785.746 460.524 785.599 461.526 C 785.422 462.735 785.088 462.952 784.607 462.173 C 784.208 461.528 784.141 460.581 784.458 460.068 C 784.775 459.556 783.676 459.814 782.017 460.641 C 780.358 461.469 779.000 462.815 779.000 463.632 C 779.000 464.449 778.550 464.840 778.000 464.500 C 777.450 464.160 777.000 464.584 777.000 465.441 C 777.000 466.298 776.325 467.000 775.500 467.000 C 774.675 467.000 774.000 467.454 774.000 468.009 C 774.000 469.270 762.831 481.500 761.679 481.500 C 761.214 481.500 761.107 481.773 761.441 482.107 C 761.775 482.442 761.362 483.284 760.524 483.980 C 758.397 485.746 758.606 487.543 760.750 485.921 C 762.261 484.778 762.322 484.795 761.200 486.048 C 760.485 486.847 759.472 487.556 758.950 487.625 C 758.428 487.694 757.550 487.806 757.000 487.875 C 756.450 487.944 756.000 488.689 756.000 489.531 C 756.000 490.374 755.325 491.322 754.500 491.638 C 753.675 491.955 753.000 492.815 753.000 493.550 C 753.000 494.285 752.103 495.515 751.006 496.283 C 749.910 497.051 749.279 497.945 749.604 498.270 C 749.929 498.595 749.251 499.451 748.097 500.171 C 746.944 500.892 746.000 501.893 746.000 502.396 C 746.000 502.899 744.875 504.786 743.500 506.589 C 742.125 508.392 741.000 510.294 741.000 510.817 C 741.000 511.339 739.988 512.052 738.750 512.400 C 736.547 513.020 736.540 513.064 738.441 514.516 C 740.331 515.961 740.321 516.000 738.084 516.000 C 736.460 516.000 735.954 516.437 736.357 517.488 C 736.671 518.306 736.607 518.928 736.214 518.870 C 734.148 518.562 733.000 519.165 733.000 520.559 C 733.000 521.416 732.555 521.843 732.011 521.507 C 731.453 521.162 731.272 521.545 731.595 522.387 C 731.932 523.265 731.310 524.414 730.084 525.180 C 728.938 525.896 728.000 526.983 728.000 527.597 C 728.000 528.817 721.079 538.295 719.796 538.833 C 719.358 539.017 719.000 539.804 719.000 540.583 C 719.000 541.363 718.550 542.000 718.000 542.000 C 717.450 542.000 717.000 542.900 717.000 544.000 C 717.000 545.410 717.667 546.000 719.259 546.000 C 721.745 546.000 724.468 542.567 723.379 540.805 C 722.977 540.155 723.143 539.970 723.776 540.362 C 725.282 541.292 726.433 539.097 726.180 535.779 C 726.064 534.250 726.474 533.000 727.091 533.000 C 727.723 533.000 727.951 533.765 727.613 534.750 C 727.282 535.713 728.340 534.964 729.964 533.087 C 731.588 531.211 732.684 529.298 732.400 528.837 C 732.115 528.377 732.407 528.000 733.048 528.000 C 733.689 528.000 733.957 527.330 733.643 526.512 C 733.329 525.694 733.451 525.131 733.914 525.262 C 734.376 525.393 736.139 523.925 737.830 522.000 C 740.318 519.167 740.580 518.474 739.202 518.365 C 737.969 518.267 738.120 518.028 739.750 517.498 C 740.988 517.096 742.056 516.369 742.125 515.883 C 742.368 514.164 742.752 513.008 742.875 513.622 C 743.072 514.603 746.000 511.875 746.000 510.711 C 746.000 510.137 745.690 509.976 745.312 510.355 C 744.933 510.733 744.519 510.333 744.392 509.466 C 744.216 508.264 744.476 508.150 745.483 508.986 C 746.500 509.830 747.339 509.323 749.119 506.791 C 750.392 504.981 753.805 500.607 756.704 497.071 C 759.603 493.535 761.718 490.385 761.404 490.071 C 761.090 489.757 761.433 489.499 762.167 489.497 C 762.900 489.496 763.561 488.821 763.635 487.997 C 763.828 485.852 764.229 484.815 764.375 486.083 C 764.444 486.679 764.822 486.845 765.215 486.452 C 765.608 486.059 765.454 484.848 764.872 483.761 C 763.413 481.034 765.238 479.346 767.092 481.708 C 768.375 483.341 768.345 483.379 766.750 482.128 C 765.788 481.373 765.000 481.212 765.000 481.771 C 765.000 483.741 767.834 483.841 769.561 481.933 C 770.523 480.870 771.015 479.944 770.655 479.875 C 770.295 479.806 770.457 479.694 771.016 479.625 C 771.575 479.556 772.922 478.150 774.009 476.500 C 775.097 474.850 775.990 473.922 775.993 474.437 C 775.997 474.952 777.355 474.052 779.011 472.437 C 780.667 470.822 781.567 469.613 781.011 469.750 C 780.455 469.888 780.000 469.502 780.000 468.893 C 780.000 468.284 780.666 468.041 781.479 468.354 C 782.292 468.666 784.880 468.069 787.229 467.028 C 791.123 465.303 791.472 465.284 791.186 466.818 C 790.637 469.764 790.789 471.176 793.465 488.000 C 797.752 514.953 799.736 527.653 802.133 543.500 C 803.545 552.837 804.928 558.898 805.794 559.555 C 807.452 560.811 815.500 559.936 815.500 558.500 C 815.500 557.950 814.897 554.125 814.160 550.000 C 808.156 516.384 804.676 497.119 802.059 483.000 C 800.377 473.925 799.001 465.982 799.001 465.349 C 799.000 464.585 802.957 463.962 810.750 463.500 C 817.213 463.116 824.075 462.649 826.000 462.461 C 841.367 460.961 911.662 459.873 959.565 460.393 C 1015.147 460.997 1026.075 461.570 1035.250 464.360 C 1037.863 465.154 1040.034 465.511 1040.077 465.152 C 1040.119 464.793 1040.304 465.289 1040.489 466.254 C 1040.854 468.164 1047.266 483.365 1049.564 487.770 C 1050.347 489.272 1050.990 491.089 1050.994 491.809 C 1050.997 492.543 1051.507 492.805 1052.155 492.405 C 1052.846 491.977 1053.039 492.129 1052.635 492.782 C 1051.819 494.102 1056.345 504.322 1057.316 503.351 C 1057.974 502.692 1058.422 504.523 1058.064 506.412 C 1057.759 508.026 1060.204 512.992 1061.047 512.471 C 1061.495 512.194 1062.187 512.494 1062.585 513.138 C 1063.037 513.869 1062.876 514.041 1062.155 513.595 C 1061.520 513.203 1061.000 513.225 1061.000 513.643 C 1061.000 514.318 1074.346 545.492 1077.439 552.042 C 1079.127 555.617 1078.435 556.718 1074.834 556.189 C 1072.470 555.842 1071.909 556.043 1072.512 557.020 C 1073.069 557.920 1072.915 558.065 1072.003 557.502 C 1071.180 556.993 1070.197 557.377 1069.348 558.539 C 1068.201 560.108 1068.223 560.415 1069.500 560.603 C 1070.325 560.724 1071.000 560.525 1071.000 560.162 C 1070.999 559.175 1092.398 559.361 1093.123 560.353 C 1093.465 560.823 1094.644 560.726 1095.741 560.138 C 1096.839 559.551 1097.909 559.216 1098.119 559.395 C 1098.328 559.573 1099.816 560.035 1101.425 560.422 C 1103.999 561.041 1104.194 560.938 1103.052 559.563 C 1101.548 557.750 1103.025 557.425 1104.782 559.182 C 1106.114 560.514 1118.000 561.224 1118.000 559.973 C 1118.000 559.530 1117.438 558.940 1116.750 558.662 C 1115.410 558.122 1123.538 557.656 1128.500 557.989 C 1130.150 558.100 1131.950 558.539 1132.500 558.965 C 1133.050 559.391 1136.425 559.793 1140.000 559.858 C 1143.575 559.923 1149.763 560.260 1153.750 560.606 C 1159.519 561.106 1161.003 560.956 1161.015 559.867 C 1161.025 559.032 1161.316 558.894 1161.765 559.512 C 1162.169 560.069 1163.682 560.581 1165.127 560.649 C 1167.719 560.771 1167.703 560.727 1163.999 557.380 L 1160.243 553.987 1144.166 554.617 C 1135.323 554.964 1127.281 554.893 1126.294 554.460 C 1125.307 554.027 1124.163 553.578 1123.750 553.461 C 1123.338 553.345 1123.295 553.194 1123.655 553.125 C 1124.015 553.056 1123.481 552.084 1122.468 550.965 C 1121.455 549.845 1120.012 549.165 1119.261 549.453 C 1118.510 549.741 1118.157 549.555 1118.476 549.039 C 1118.795 548.523 1117.655 547.066 1115.944 545.800 C 1114.233 544.535 1113.395 543.500 1114.083 543.500 C 1116.660 543.500 1116.048 541.053 1113.321 540.453 C 1111.769 540.112 1110.005 539.685 1109.399 539.505 C 1108.794 539.325 1108.041 536.683 1107.726 533.636 C 1107.085 527.424 1105.100 522.500 1103.237 522.500 C 1102.556 522.500 1101.888 522.060 1101.750 521.522 C 1101.453 520.360 1099.325 519.938 1097.430 520.665 C 1096.316 521.093 1094.908 523.667 1094.514 526.000 C 1094.467 526.275 1093.897 527.456 1093.246 528.625 C 1090.380 533.775 1091.062 547.837 1094.345 551.249 C 1096.690 553.688 1095.691 555.500 1092.000 555.500 L 1088.500 555.500 1080.328 539.000 C 1075.834 529.925 1072.070 522.950 1071.964 523.500 C 1071.859 524.050 1071.629 523.311 1071.454 521.859 C 1071.279 520.406 1069.129 515.231 1066.675 510.359 C 1064.221 505.486 1061.917 500.510 1061.555 499.301 C 1061.108 497.806 1060.354 497.276 1059.199 497.645 C 1057.951 498.045 1057.844 497.941 1058.799 497.255 C 1059.816 496.524 1059.231 494.611 1056.091 488.411 C 1053.887 484.060 1052.065 480.928 1052.042 481.450 C 1052.019 481.972 1051.438 481.794 1050.750 481.053 C 1049.750 479.976 1049.750 479.848 1050.750 480.412 C 1052.529 481.417 1052.332 480.589 1049.433 474.867 C 1046.624 469.324 1046.819 468.100 1050.252 469.735 C 1051.488 470.324 1053.850 470.682 1055.500 470.532 C 1057.150 470.381 1058.163 470.150 1057.750 470.018 C 1056.873 469.737 1060.641 469.688 1061.750 469.965 C 1062.681 470.198 1059.348 471.059 1056.000 471.450 C 1054.625 471.611 1054.024 471.800 1054.663 471.871 C 1055.303 471.942 1059.487 474.714 1063.960 478.030 C 1068.433 481.347 1072.592 483.752 1073.201 483.376 C 1073.846 482.977 1074.029 483.145 1073.637 483.778 C 1073.250 484.404 1076.221 487.329 1080.651 490.682 C 1084.878 493.882 1090.095 498.046 1092.245 499.935 C 1095.474 502.774 1096.330 503.121 1097.171 501.935 C 1098.004 500.760 1098.092 500.803 1097.654 502.177 C 1097.073 503.996 1103.578 509.755 1104.816 508.518 C 1105.192 508.141 1105.500 508.318 1105.500 508.911 C 1105.500 510.379 1116.153 519.024 1117.180 518.389 C 1117.631 518.110 1118.000 518.338 1118.000 518.895 C 1118.000 520.497 1127.234 527.124 1128.689 526.566 C 1129.410 526.289 1130.000 526.464 1130.000 526.955 C 1130.000 528.834 1135.318 534.092 1136.687 533.567 C 1137.466 533.268 1137.854 533.428 1137.548 533.922 C 1137.242 534.417 1138.907 536.190 1141.246 537.862 C 1143.586 539.535 1146.286 541.677 1147.246 542.622 C 1148.206 543.568 1149.331 544.002 1149.746 543.587 C 1150.161 543.173 1150.500 543.384 1150.500 544.058 C 1150.500 544.731 1151.350 545.781 1152.388 546.391 C 1153.427 547.001 1155.387 548.496 1156.746 549.714 C 1158.104 550.932 1159.504 551.891 1159.857 551.846 C 1160.211 551.800 1160.327 551.816 1160.115 551.882 C 1159.167 552.173 1164.770 555.834 1166.057 555.763 C 1166.851 555.720 1167.130 555.756 1166.679 555.842 C 1166.227 555.929 1166.550 556.693 1167.397 557.540 C 1168.768 558.911 1169.459 558.918 1173.718 557.609 C 1176.348 556.801 1177.863 556.108 1177.084 556.070 C 1176.305 556.031 1174.955 555.356 1174.084 554.570 C 1173.213 553.783 1171.271 552.012 1169.769 550.634 C 1168.267 549.256 1166.778 548.550 1166.460 549.065 C 1166.142 549.579 1166.434 550.000 1167.108 550.000 C 1167.782 550.000 1168.044 550.289 1167.691 550.643 C 1167.337 550.996 1166.293 550.658 1165.370 549.893 C 1164.448 549.127 1164.195 548.500 1164.810 548.500 C 1165.487 548.500 1165.602 547.974 1165.102 547.165 C 1164.648 546.430 1163.989 545.868 1163.638 545.915 C 1161.672 546.178 1161.000 545.863 1161.000 544.679 C 1161.000 543.268 1154.125 542.844 1153.850 544.239 C 1153.768 544.657 1153.655 544.438 1153.600 543.750 C 1153.545 543.062 1154.335 542.643 1155.356 542.818 C 1156.536 543.021 1157.050 542.656 1156.768 541.818 C 1156.523 541.093 1155.463 540.454 1154.412 540.398 C 1153.360 540.342 1152.903 540.229 1153.396 540.148 C 1154.952 539.891 1148.979 534.997 1147.198 535.070 C 1145.805 535.128 1145.859 535.295 1147.500 536.000 C 1149.130 536.701 1149.188 536.872 1147.809 536.930 C 1145.608 537.021 1144.611 535.369 1146.234 534.319 C 1147.200 533.694 1147.144 533.495 1146.000 533.481 C 1145.175 533.470 1144.417 533.245 1144.315 532.981 C 1144.213 532.716 1143.827 531.713 1143.458 530.750 C 1143.088 529.788 1142.133 529.000 1141.334 529.000 C 1140.535 529.000 1140.141 529.419 1140.457 529.931 C 1140.774 530.443 1140.506 531.187 1139.862 531.585 C 1139.157 532.021 1138.958 531.877 1139.362 531.224 C 1139.731 530.627 1139.463 529.776 1138.766 529.334 C 1137.795 528.718 1137.839 528.527 1138.960 528.515 C 1139.762 528.507 1138.504 526.983 1136.163 525.129 C 1133.823 523.276 1131.604 522.063 1131.233 522.434 C 1130.862 522.805 1131.220 523.569 1132.029 524.131 C 1133.314 525.023 1133.311 525.100 1132.000 524.740 C 1131.175 524.513 1130.499 523.467 1130.499 522.414 C 1130.498 521.361 1129.935 520.500 1129.249 520.500 C 1128.562 520.500 1128.000 520.838 1128.000 521.250 C 1128.000 522.939 1127.741 522.873 1127.625 521.154 C 1127.440 518.419 1125.085 516.030 1123.263 516.729 C 1122.208 517.134 1121.915 516.946 1122.395 516.170 C 1122.840 515.449 1122.455 515.000 1121.392 515.000 C 1120.443 515.000 1119.952 514.714 1120.301 514.365 C 1120.650 514.016 1119.306 512.435 1117.313 510.852 C 1113.861 508.108 1113.576 508.048 1111.238 509.579 C 1109.297 510.852 1108.548 510.928 1107.643 509.946 C 1106.776 509.006 1106.803 508.878 1107.758 509.417 C 1108.449 509.808 1109.629 509.514 1110.379 508.764 C 1111.529 507.613 1111.380 506.981 1109.419 504.701 C 1107.273 502.206 1104.146 500.809 1105.457 502.931 C 1105.774 503.443 1105.615 504.120 1105.104 504.436 C 1104.593 504.751 1104.303 504.220 1104.458 503.255 C 1104.914 500.422 1103.192 498.078 1100.969 498.506 C 1099.857 498.720 1099.154 498.560 1099.407 498.150 C 1099.661 497.740 1099.455 496.751 1098.949 495.952 C 1098.319 494.956 1098.026 494.892 1098.015 495.750 C 1098.007 496.438 1097.523 497.000 1096.941 497.000 C 1096.350 497.000 1096.222 496.448 1096.652 495.750 C 1097.076 495.063 1096.172 495.318 1094.644 496.317 C 1092.470 497.739 1091.557 497.878 1090.446 496.955 C 1089.392 496.081 1089.300 495.354 1090.088 494.138 C 1091.044 492.665 1091.096 492.676 1090.607 494.250 C 1090.107 495.858 1090.855 496.382 1092.750 495.750 C 1093.163 495.613 1093.388 495.163 1093.250 494.750 C 1093.113 494.338 1093.498 494.000 1094.106 494.000 C 1094.714 494.000 1093.759 492.643 1091.983 490.984 C 1090.208 489.326 1088.023 488.088 1087.127 488.234 C 1086.061 488.408 1085.601 487.896 1085.794 486.750 C 1085.976 485.663 1085.408 484.942 1084.294 484.848 C 1083.307 484.764 1082.045 484.643 1081.490 484.579 C 1080.934 484.515 1080.649 483.571 1080.856 482.481 C 1081.230 480.514 1081.216 480.514 1078.944 482.500 C 1077.686 483.600 1076.966 483.969 1077.344 483.319 C 1077.723 482.670 1077.542 481.770 1076.942 481.319 C 1076.270 480.814 1076.449 480.692 1077.407 481.000 C 1078.263 481.275 1077.774 480.375 1076.320 479.000 C 1074.867 477.625 1073.998 477.057 1074.391 477.739 C 1074.871 478.573 1074.597 478.783 1073.552 478.382 C 1072.668 478.042 1072.000 478.315 1072.000 479.015 C 1072.000 479.966 1071.650 479.955 1070.458 478.965 C 1069.275 477.983 1069.193 477.430 1070.104 476.592 C 1070.980 475.788 1071.107 475.830 1070.588 476.750 C 1069.904 477.962 1071.139 478.528 1072.185 477.482 C 1072.804 476.863 1066.495 470.000 1065.307 470.000 C 1064.852 470.000 1063.266 468.875 1061.783 467.500 C 1060.301 466.125 1058.505 465.007 1057.794 465.015 C 1056.783 465.027 1056.797 465.219 1057.857 465.890 C 1058.803 466.490 1058.878 466.957 1058.107 467.434 C 1057.023 468.104 1056.579 466.843 1056.948 464.150 C 1057.050 463.407 1056.685 463.077 1056.136 463.416 C 1055.587 463.755 1054.856 463.575 1054.510 463.016 C 1054.165 462.457 1053.432 462.000 1052.882 462.000 C 1052.332 462.000 1052.160 462.450 1052.500 463.000 C 1052.840 463.550 1052.834 464.000 1052.488 464.000 C 1051.459 464.000 1049.000 461.230 1049.000 460.071 C 1049.000 459.482 1048.663 459.092 1048.250 459.205 C 1047.452 459.423 1040.178 457.140 1038.500 456.144 C 1037.950 455.818 1036.375 455.413 1035.000 455.245 C 1033.625 455.076 1031.825 454.665 1031.000 454.330 C 1027.552 452.933 1019.687 452.457 1017.934 453.540 C 1017.403 453.869 1017.269 454.627 1017.638 455.224 C 1018.048 455.887 1017.841 456.020 1017.106 455.565 C 1016.185 454.996 1016.177 454.491 1017.074 453.411 C 1018.057 452.226 1017.304 451.973 1012.372 451.831 C 1000.163 451.480 986.543 452.135 985.342 453.131 C 984.657 453.700 983.287 453.955 982.298 453.699 C 980.886 453.332 980.983 453.207 982.750 453.116 C 985.377 452.981 985.841 451.127 983.250 451.120 C 982.288 451.117 962.015 450.961 938.200 450.774 C 914.385 450.586 894.810 450.501 894.700 450.585 M 1113.000 547.655 C 1113.000 547.295 1113.032 547.338 1113.071 547.750 C 1113.219 549.309 1116.310 551.927 1117.288 551.322 C 1117.850 550.975 1118.019 551.160 1117.666 551.732 C 1117.312 552.305 1117.713 553.347 1118.558 554.048 C 1119.830 555.104 1118.925 555.290 1113.297 555.130 C 1109.559 555.024 1105.068 555.361 1103.319 555.879 C 1100.967 556.575 1099.663 556.461 1098.319 555.442 C 1096.565 554.113 1096.737 553.928 1099.997 553.635 C 1100.821 553.561 1101.496 552.900 1101.497 552.167 C 1101.499 551.433 1101.756 551.089 1102.068 551.402 C 1102.381 551.714 1104.151 550.407 1106.003 548.497 C 1109.162 545.238 1109.481 545.125 1111.185 546.667 C 1112.183 547.571 1113.000 548.015 1113.000 547.655 "/></g>
<g fill="#E00410FD">
<path d="M 312.633 673.795 C 312.989 675.283 313.882 677.694 314.617 679.154 C 315.852 681.609 342.302 707.492 343.131 707.057 C 343.334 706.951 345.569 708.846 348.098 711.269 C 354.604 717.503 368.604 728.686 373.424 731.498 C 380.131 735.411 406.713 739.808 452.000 744.495 C 469.173 746.273 474.000 746.370 474.000 744.941 C 474.000 744.359 474.400 744.129 474.889 744.431 C 475.378 744.733 476.887 743.522 478.244 741.740 C 481.306 737.716 487.374 727.035 486.871 726.552 C 486.403 726.102 450.544 717.862 446.500 717.275 C 424.696 714.112 375.791 700.111 356.500 691.509 C 353.750 690.283 349.025 688.268 346.000 687.033 C 342.975 685.797 335.775 682.485 330.000 679.673 C 324.225 676.860 319.050 674.485 318.500 674.395 C 317.950 674.305 317.725 674.161 318.000 674.076 C 318.275 673.991 317.034 673.285 315.242 672.506 L 311.984 671.090 312.633 673.795 "/></g>
<g fill="#696969FD">
<path d="M 1092.500 617.081 C 988.755 617.849 870.999 619.497 837.687 620.647 L 818.874 621.296 819.540 625.398 C 819.906 627.654 820.582 629.900 821.043 630.390 C 821.531 630.909 844.272 630.791 875.690 630.104 C 977.308 627.885 1065.590 626.111 1129.500 625.004 C 1164.700 624.394 1196.763 623.655 1200.750 623.362 C 1207.902 622.837 1208.000 622.791 1208.000 620.022 C 1208.000 616.584 1206.547 615.950 1199.168 616.167 C 1196.051 616.259 1148.050 616.670 1092.500 617.081 "/></g>
<g fill="#ED6870FD">
<path d="M 1199.000 553.316 C 1199.000 556.243 1194.591 558.172 1188.544 557.892 C 1185.477 557.750 1183.275 557.941 1183.650 558.317 C 1184.026 558.693 1185.158 559.000 1186.167 559.000 C 1187.175 559.000 1188.000 559.413 1188.000 559.917 C 1188.000 560.422 1189.913 561.519 1192.250 562.355 C 1195.721 563.597 1205.026 563.985 1243.000 564.467 C 1393.361 566.379 1522.073 570.612 1563.500 575.007 C 1568.450 575.532 1575.425 576.175 1579.000 576.434 L 1585.500 576.907 1579.500 575.897 C 1574.347 575.031 1565.624 573.696 1527.500 567.941 C 1477.586 560.406 1375.413 554.935 1236.750 552.374 C 1202.160 551.735 1199.000 551.814 1199.000 553.316 "/></g>
<g fill="#ED6870FD">
<path d="M 810.000 441.166 C 767.350 442.735 697.255 449.097 693.000 451.785 C 689.115 454.239 650.523 482.629 640.764 490.212 C 631.400 497.489 629.204 498.642 633.076 494.250 L 635.500 491.500 632.754 493.921 C 631.244 495.252 630.227 496.561 630.495 496.829 C 631.160 497.494 628.995 500.000 627.755 500.000 C 627.205 500.000 627.365 499.213 628.110 498.250 C 629.207 496.833 629.039 496.864 627.227 498.411 C 625.995 499.461 625.212 500.545 625.485 500.819 C 626.139 501.473 624.021 504.000 622.819 504.000 C 622.303 504.000 622.211 503.438 622.613 502.750 C 623.015 502.063 622.368 502.400 621.176 503.500 C 619.880 504.695 619.618 505.299 620.525 505.000 C 621.852 504.562 621.849 504.674 620.497 505.893 C 619.647 506.658 618.662 506.995 618.307 506.640 C 617.952 506.286 616.860 506.784 615.878 507.748 C 614.169 509.427 614.174 509.459 616.019 508.500 C 617.078 507.950 615.819 509.297 613.222 511.493 C 610.434 513.851 609.114 514.578 610.000 513.268 C 610.825 512.048 609.762 513.059 607.638 515.515 C 605.514 517.970 603.426 519.763 602.997 519.498 C 602.569 519.234 601.382 520.187 600.359 521.617 C 599.337 523.046 598.725 523.509 599.000 522.644 C 599.275 521.779 596.927 523.488 593.782 526.441 C 590.637 529.394 588.162 531.351 588.282 530.790 C 588.402 530.229 586.747 531.735 584.605 534.135 C 582.462 536.536 581.077 537.825 581.527 537.000 C 582.053 536.034 581.570 536.179 580.172 537.405 C 578.977 538.453 578.000 539.915 578.000 540.655 C 578.000 541.395 577.523 542.000 576.941 542.000 C 576.359 542.000 576.203 541.438 576.596 540.750 C 576.988 540.063 575.955 540.759 574.300 542.298 C 572.645 543.836 569.988 545.485 568.396 545.962 C 565.645 546.785 565.624 546.832 567.973 546.914 L 570.445 547.000 568.223 548.557 C 567.000 549.413 566.000 550.538 566.000 551.057 C 566.000 551.640 590.539 551.936 630.250 551.832 C 686.915 551.683 691.372 551.566 668.000 550.842 C 653.425 550.391 627.151 549.738 609.614 549.392 L 577.729 548.763 581.420 545.382 C 583.450 543.522 585.333 542.000 585.605 542.000 C 585.876 542.000 589.614 539.188 593.911 535.750 C 622.725 512.700 696.813 456.452 700.252 455.017 C 704.191 453.373 741.358 449.757 777.260 447.525 C 810.508 445.459 952.573 444.357 984.500 445.917 C 1021.762 447.739 1032.309 449.111 1046.414 453.968 C 1049.667 455.089 1052.548 455.785 1052.816 455.517 C 1053.770 454.563 1042.013 449.888 1032.759 447.541 C 1015.930 443.272 966.274 441.104 876.000 440.699 C 849.875 440.582 820.175 440.792 810.000 441.166 "/></g>
<g fill="#E00410FD">
<path d="M 593.500 618.754 C 578.771 619.504 560.142 624.713 547.000 631.756 C 541.080 634.928 532.236 640.638 531.000 642.085 C 530.725 642.407 529.778 643.082 528.896 643.585 C 523.611 646.599 504.060 666.393 505.221 667.555 C 506.050 668.383 528.348 657.265 535.500 652.457 C 542.220 647.940 547.906 644.975 556.500 641.507 C 558.700 640.620 560.602 639.878 560.726 639.859 C 560.850 639.840 564.900 638.737 569.726 637.409 C 582.167 633.984 597.883 632.673 610.404 634.017 C 632.915 636.433 647.747 641.629 664.500 652.968 C 666.700 654.457 672.100 657.145 676.500 658.941 C 680.900 660.737 685.850 662.787 687.500 663.496 C 694.997 666.719 695.387 666.406 691.037 660.658 C 680.785 647.114 669.493 638.069 652.949 630.151 C 635.488 621.793 614.152 617.703 593.500 618.754 "/></g>
<g fill="#696969FD">
<path d="M 783.432 469.865 C 778.778 473.310 769.470 482.872 761.720 492.169 C 755.986 499.047 734.000 528.345 725.659 540.223 L 720.937 546.946 723.426 547.571 C 724.794 547.914 726.496 547.962 727.207 547.677 C 727.918 547.391 727.225 547.122 725.667 547.079 C 724.108 547.036 722.987 546.540 723.174 545.979 C 723.361 545.417 727.502 539.342 732.376 532.479 L 741.238 520.000 760.619 519.889 C 771.278 519.828 780.905 519.728 782.011 519.667 C 783.785 519.569 783.510 520.386 779.681 526.598 C 774.529 534.954 766.726 548.975 767.180 549.060 C 767.356 549.093 769.639 549.332 772.254 549.590 C 776.760 550.034 793.360 555.318 795.500 556.988 C 796.050 557.418 797.963 558.082 799.750 558.464 C 803.780 559.326 803.764 560.201 800.152 537.000 L 797.427 519.500 791.714 519.200 C 788.571 519.035 786.000 518.642 786.000 518.327 C 786.000 518.012 788.054 514.876 790.564 511.358 L 795.129 504.961 792.284 486.304 C 790.720 476.043 788.973 467.491 788.402 467.301 C 787.830 467.110 785.594 468.264 783.432 469.865 "/></g>
<g fill="#E00410FD">
<path d="M 1436.500 620.150 C 1418.211 621.065 1405.302 624.394 1389.500 632.268 C 1374.187 639.899 1358.811 651.495 1348.205 663.412 C 1341.287 671.184 1330.032 688.040 1327.114 695.000 C 1325.846 698.025 1324.071 701.625 1323.171 703.000 C 1320.184 707.565 1317.765 720.432 1319.558 722.225 C 1320.290 722.957 1326.000 720.791 1326.000 719.781 C 1326.000 719.351 1326.476 719.000 1327.059 719.000 C 1329.577 719.000 1337.132 710.193 1343.975 699.281 C 1351.497 687.285 1358.740 677.806 1367.825 668.068 C 1370.612 665.080 1372.622 662.198 1372.292 661.663 C 1371.958 661.124 1372.208 661.011 1372.853 661.409 C 1373.492 661.804 1374.798 661.345 1375.754 660.388 C 1379.848 656.295 1392.368 647.792 1399.639 644.167 C 1415.286 636.366 1424.050 634.584 1446.500 634.637 C 1462.566 634.675 1465.529 634.955 1474.078 637.239 C 1485.151 640.197 1492.534 643.712 1504.182 651.574 C 1508.757 654.661 1512.360 656.583 1512.189 655.844 C 1511.821 654.256 1509.424 652.193 1502.128 647.186 C 1494.126 641.695 1491.289 640.302 1482.500 637.546 C 1466.267 632.456 1449.914 630.585 1434.460 632.049 C 1417.410 633.665 1404.918 637.854 1376.060 651.632 C 1372.452 653.355 1369.369 654.425 1369.210 654.011 C 1368.833 653.034 1375.997 646.289 1383.000 641.026 C 1390.446 635.430 1404.581 628.603 1415.500 625.329 C 1423.819 622.835 1425.899 622.626 1443.000 622.565 C 1459.113 622.508 1462.661 622.795 1470.500 624.785 C 1481.059 627.465 1487.544 629.871 1498.500 635.174 C 1504.953 638.297 1505.936 638.573 1503.586 636.604 C 1500.145 633.722 1486.400 626.727 1480.000 624.601 C 1467.715 620.520 1455.039 619.223 1436.500 620.150 "/></g>
<g fill="#E00410FD">
<path d="M 714.393 736.582 C 714.727 737.452 715.000 739.023 715.000 740.074 C 715.000 741.935 716.278 741.971 765.250 741.474 C 936.875 739.734 1020.986 738.961 1101.750 738.383 C 1151.938 738.023 1193.000 737.340 1193.000 736.864 C 1193.000 736.383 1136.177 735.999 1064.750 735.999 C 994.213 735.998 915.201 735.699 889.168 735.335 C 843.217 734.691 841.847 734.726 842.168 736.549 C 842.373 737.709 841.831 738.565 840.750 738.787 C 839.530 739.038 839.000 738.518 839.000 737.073 L 839.000 735.000 776.393 735.000 C 719.714 735.000 713.844 735.150 714.393 736.582 "/></g>
<g fill="#000000FD">
<path d="M 760.711 520.000 L 740.923 520.500 731.976 533.000 C 727.055 539.875 723.023 545.795 723.015 546.156 C 723.007 546.517 725.363 547.146 728.250 547.553 C 731.138 547.960 734.400 548.433 735.500 548.603 C 739.519 549.225 753.681 553.117 760.472 555.465 C 765.970 557.367 767.755 557.625 768.914 556.688 C 770.052 555.768 770.221 555.771 769.664 556.700 C 768.186 559.162 772.999 559.999 788.184 559.921 C 799.905 559.861 802.796 559.605 800.500 558.830 C 798.850 558.274 795.700 557.022 793.500 556.049 C 786.763 553.069 776.737 550.047 772.000 549.569 C 769.525 549.319 767.356 549.089 767.180 549.057 C 766.726 548.976 774.532 534.948 779.659 526.634 C 783.188 520.910 783.660 519.616 782.239 519.564 C 781.283 519.529 771.595 519.725 760.711 520.000 "/></g>
<g fill="#696969FD">
<path d="M 1209.192 619.526 L 1209.061 623.000 1217.780 622.996 C 1226.715 622.992 1365.811 620.529 1412.500 619.548 C 1426.800 619.247 1466.625 618.529 1501.000 617.952 C 1535.375 617.376 1564.850 616.769 1566.500 616.605 C 1568.150 616.441 1488.460 616.250 1389.411 616.180 L 1209.322 616.052 1209.192 619.526 "/></g>
<g fill="#696969FD">
<path d="M 1049.000 470.694 C 1049.000 471.391 1066.037 507.529 1081.555 539.750 C 1088.522 554.216 1089.049 555.000 1091.796 555.000 L 1094.693 555.000 1092.879 549.750 C 1090.755 543.603 1090.489 534.359 1092.252 528.000 C 1093.378 523.940 1093.363 523.794 1092.101 526.500 C 1089.346 532.405 1089.575 544.517 1092.589 552.371 C 1093.033 553.527 1092.658 554.000 1091.297 554.000 C 1089.804 554.000 1087.606 550.298 1081.351 537.250 L 1073.322 520.500 1084.213 520.217 C 1094.194 519.957 1095.078 520.082 1094.801 521.717 C 1094.580 523.026 1094.842 522.902 1095.785 521.250 C 1098.733 516.089 1105.396 520.479 1107.592 529.029 C 1108.950 534.315 1108.979 534.348 1108.448 530.000 C 1108.146 527.525 1107.247 524.503 1106.449 523.285 C 1104.469 520.259 1104.588 519.960 1107.750 520.026 C 1109.263 520.058 1111.482 519.953 1112.683 519.792 C 1114.928 519.492 1117.848 521.467 1134.500 534.553 C 1139.450 538.442 1146.650 544.025 1150.500 546.958 C 1154.350 549.892 1157.507 552.788 1157.515 553.396 C 1157.526 554.174 1157.744 554.165 1158.253 553.365 C 1158.707 552.652 1150.350 545.614 1135.738 534.406 C 1122.957 524.602 1100.415 507.208 1085.644 495.753 C 1061.761 477.232 1049.000 468.505 1049.000 470.694 "/></g>
<g fill="#696969FD">
<path d="M 1067.067 456.642 C 1065.343 458.833 1065.179 459.586 1066.215 460.536 C 1066.922 461.183 1077.400 469.507 1089.500 479.034 C 1114.507 498.724 1134.862 514.874 1163.000 537.352 C 1175.159 547.065 1183.366 552.943 1184.800 552.965 C 1187.436 553.005 1193.000 550.373 1193.000 549.086 C 1193.000 548.611 1191.379 547.919 1189.398 547.547 C 1186.863 547.071 1183.160 544.544 1176.887 539.008 C 1168.971 532.021 1151.642 517.881 1127.500 498.708 C 1123.100 495.213 1108.700 484.107 1095.500 474.026 C 1082.300 463.946 1070.983 455.300 1070.352 454.812 C 1069.602 454.232 1068.463 454.867 1067.067 456.642 "/></g>
<g fill="#E00410FD">
<path d="M 835.637 702.504 C 835.321 703.327 835.322 704.675 835.638 705.500 C 836.147 706.826 856.884 706.981 1014.857 706.834 C 1149.451 706.710 1178.829 706.492 1134.000 705.952 C 1101.275 705.557 1058.975 704.957 1040.000 704.618 C 1021.025 704.279 969.725 703.560 926.000 703.019 C 882.275 702.478 844.185 701.805 841.356 701.522 C 837.371 701.123 836.082 701.345 835.637 702.504 "/></g>
<g fill="#696969FD">
<path d="M 782.500 622.087 C 756.103 623.172 727.936 624.917 725.250 625.633 C 723.568 626.082 723.000 626.970 723.000 629.151 C 723.000 632.220 731.456 654.782 733.250 656.500 C 733.970 657.189 734.052 656.878 733.513 655.500 C 727.132 639.167 725.916 635.357 726.692 634.127 C 727.393 633.015 733.479 632.683 758.031 632.420 C 774.789 632.240 795.289 631.803 803.587 631.449 L 818.674 630.805 817.704 625.902 L 816.735 621.000 809.117 621.153 C 804.928 621.237 792.950 621.657 782.500 622.087 "/></g>
<g fill="#000000FD">
<path d="M 1111.069 519.957 C 1110.410 520.365 1108.775 520.488 1107.435 520.232 C 1104.626 519.695 1104.452 520.218 1106.423 523.285 C 1107.206 524.503 1108.329 528.161 1108.919 531.413 C 1110.154 538.218 1110.068 538.089 1114.298 539.494 C 1116.668 540.280 1117.445 541.098 1117.287 542.638 C 1117.169 543.783 1118.182 545.762 1119.537 547.034 C 1120.891 548.307 1122.000 548.985 1122.000 548.539 C 1122.000 548.094 1122.933 548.916 1124.073 550.365 L 1126.145 553.000 1142.323 552.948 C 1157.671 552.898 1158.378 552.810 1156.123 551.241 C 1154.816 550.332 1147.386 544.618 1139.612 538.544 C 1113.727 518.317 1113.725 518.316 1111.069 519.957 "/></g>
<g fill="#D9D9D9FD">
<path d="M 291.500 633.873 C 288.881 634.694 288.624 637.499 290.013 650.118 C 291.192 660.831 293.234 667.591 294.968 666.520 C 295.532 666.171 295.742 666.508 295.444 667.285 C 294.906 668.688 308.091 682.000 310.019 682.000 C 310.558 682.000 311.338 682.000 311.750 682.000 C 312.163 682.000 312.500 682.563 312.500 683.250 C 312.500 683.938 313.844 684.653 315.486 684.839 C 318.455 685.176 318.461 685.167 316.581 683.089 C 315.541 681.940 314.246 681.000 313.703 681.000 C 310.536 681.000 295.639 665.027 297.278 663.389 C 297.592 663.075 300.739 664.434 304.271 666.409 C 307.802 668.384 310.986 670.000 311.346 670.000 C 311.706 670.000 312.000 663.475 312.000 655.500 C 312.000 646.319 311.626 641.000 310.981 641.000 C 310.414 641.000 310.221 639.969 310.545 638.676 C 311.399 635.273 308.879 633.634 303.742 634.252 C 301.409 634.533 298.983 634.928 298.350 635.131 C 297.718 635.334 297.268 635.095 297.350 634.600 C 297.539 633.467 294.142 633.046 291.500 633.873 "/></g>
<g fill="#D9D9D9FD">
<path d="M 1556.679 676.183 C 1554.600 679.245 1555.500 682.127 1559.144 684.077 C 1560.605 684.859 1561.037 684.869 1560.569 684.111 C 1560.150 683.434 1560.480 683.247 1561.442 683.616 C 1562.293 683.943 1562.710 684.661 1562.369 685.212 C 1561.980 685.841 1562.587 685.948 1564.000 685.500 C 1565.517 685.018 1566.031 685.142 1565.576 685.878 C 1565.119 686.617 1565.966 686.807 1568.200 686.466 C 1570.925 686.050 1571.152 686.142 1569.500 686.996 C 1568.053 687.743 1570.818 687.924 1579.500 687.650 C 1586.100 687.442 1590.375 687.615 1589.000 688.036 C 1586.651 688.755 1586.696 688.807 1589.750 688.900 C 1591.538 688.955 1593.000 688.550 1593.000 688.000 C 1593.000 687.450 1593.477 687.000 1594.059 687.000 C 1594.641 687.000 1594.822 687.479 1594.461 688.064 C 1594.015 688.784 1595.046 688.921 1597.652 688.489 C 1600.678 687.987 1601.180 688.097 1600.000 689.007 C 1598.830 689.910 1599.662 690.045 1603.782 689.625 C 1607.026 689.295 1608.836 689.456 1608.473 690.043 C 1608.148 690.569 1608.809 691.000 1609.941 691.000 C 1611.073 691.000 1612.000 690.572 1612.000 690.049 C 1612.000 689.525 1614.264 689.212 1617.031 689.351 C 1619.798 689.491 1621.748 689.919 1621.364 690.303 C 1620.980 690.686 1621.165 691.000 1621.774 691.000 C 1622.384 691.000 1623.176 690.524 1623.536 689.941 C 1623.899 689.355 1625.413 689.151 1626.931 689.485 C 1630.574 690.285 1635.367 686.685 1633.000 684.926 C 1631.714 683.970 1631.742 683.889 1633.199 684.355 C 1634.308 684.709 1635.112 684.221 1635.516 682.949 C 1636.377 680.236 1635.220 677.145 1633.441 677.406 C 1632.625 677.526 1632.233 677.900 1632.571 678.238 C 1632.909 678.576 1631.682 679.673 1629.843 680.676 C 1627.023 682.215 1624.310 682.481 1612.500 682.381 C 1604.800 682.316 1593.424 681.715 1587.219 681.047 C 1581.014 680.378 1574.039 679.681 1571.719 679.497 C 1567.706 679.180 1567.622 679.109 1570.000 678.054 L 1572.500 676.944 1570.000 677.628 C 1568.625 678.004 1565.475 678.354 1563.000 678.406 C 1560.525 678.458 1557.825 678.924 1557.000 679.442 C 1555.786 680.204 1555.720 680.109 1556.655 678.942 C 1557.290 678.149 1557.965 676.600 1558.155 675.500 C 1558.432 673.893 1558.142 674.027 1556.679 676.183 "/></g>
<g fill="#E00410FD">
<path d="M 752.487 696.000 C 755.149 700.583 758.846 704.456 761.699 705.648 C 766.581 707.687 833.000 707.626 833.000 705.582 C 833.000 700.917 833.540 701.000 803.136 701.000 C 774.255 701.000 769.388 700.531 766.309 697.452 C 764.989 696.132 763.539 695.894 759.633 696.357 C 756.369 696.744 754.119 696.525 753.129 695.724 C 751.881 694.714 751.769 694.763 752.487 696.000 "/></g>
<g fill="#000000FD">
<path d="M 1038.000 556.114 C 887.020 559.487 884.138 559.665 977.790 559.839 L 1064.081 560.000 1067.022 557.826 C 1070.634 555.155 1073.469 555.322 1038.000 556.114 "/></g>
<g fill="#000000FD">
<path d="M 1075.811 525.750 C 1077.374 528.913 1081.072 536.563 1084.030 542.750 C 1088.097 551.256 1089.873 554.000 1091.312 554.000 C 1092.659 554.000 1093.032 553.525 1092.589 552.371 C 1089.205 543.554 1089.289 531.896 1092.783 525.191 C 1094.002 522.852 1095.000 520.727 1095.000 520.469 C 1095.000 520.211 1090.044 520.000 1083.986 520.000 L 1072.971 520.000 1075.811 525.750 "/></g>
<g fill="#B01519FD">
<path d="M 1092.636 564.637 C 1091.573 566.867 1091.135 569.337 1091.504 571.020 C 1092.293 574.610 1097.290 579.000 1100.587 579.000 C 1104.279 579.000 1108.732 575.497 1109.503 571.986 C 1110.046 569.513 1110.654 569.000 1113.044 569.000 C 1114.866 569.000 1116.308 568.292 1116.957 567.080 C 1117.522 566.024 1119.676 564.620 1121.742 563.959 C 1123.809 563.299 1125.928 562.363 1126.450 561.879 C 1128.051 560.397 1117.696 560.959 1115.000 562.500 C 1111.783 564.339 1108.015 564.326 1105.559 562.468 C 1104.491 561.661 1101.537 561.000 1098.994 561.000 C 1094.661 561.000 1094.261 561.229 1092.636 564.637 "/></g>
<g fill="#D9D9D9FD">
<path d="M 823.500 574.696 C 820.841 575.408 820.113 576.744 820.542 580.131 C 820.738 581.679 820.444 583.226 819.889 583.568 C 819.294 583.936 819.621 584.734 820.687 585.513 C 821.977 586.456 822.860 586.531 823.770 585.776 C 824.751 584.962 824.886 585.135 824.353 586.523 C 823.876 587.765 824.025 588.103 824.830 587.605 C 825.474 587.207 826.000 587.359 826.000 587.941 C 826.000 589.713 829.801 589.123 831.193 587.134 C 831.912 586.108 832.275 585.214 832.000 585.147 C 831.725 585.080 831.451 584.158 831.391 583.098 C 831.326 581.957 831.782 581.363 832.509 581.642 C 833.307 581.948 833.645 581.276 833.475 579.725 L 833.213 577.337 848.599 577.797 C 860.138 578.142 864.369 577.939 865.517 576.986 C 866.359 576.287 867.337 576.004 867.691 576.357 C 868.044 576.711 867.808 577.068 867.167 577.150 C 866.525 577.233 866.450 577.300 867.000 577.300 C 869.826 577.300 870.236 576.989 869.143 575.673 C 868.296 574.651 863.139 574.324 846.771 574.253 C 835.072 574.202 824.600 574.402 823.500 574.696 "/></g>
<g fill="#000000FD">
<path d="M 1050.213 519.795 L 1042.925 520.089 1050.213 526.156 C 1054.221 529.493 1059.525 533.934 1062.000 536.026 C 1073.767 545.971 1073.158 546.384 1067.143 532.531 C 1061.135 518.692 1061.969 519.319 1050.213 519.795 "/></g>
<g fill="#000000FD">
<path d="M 561.667 745.667 C 560.769 746.565 560.845 754.220 561.765 755.606 C 562.289 756.395 566.658 755.999 577.000 754.227 C 591.661 751.715 592.766 751.433 591.793 750.459 C 591.421 750.087 566.739 745.508 562.417 745.010 C 562.371 745.004 562.033 745.300 561.667 745.667 "/></g>
<g fill="#000000FD">
<path d="M 1437.998 757.250 C 1437.997 757.388 1436.895 763.992 1435.549 771.928 C 1434.203 779.863 1433.330 786.725 1433.610 787.178 C 1434.239 788.195 1442.096 788.240 1443.598 787.235 C 1444.863 786.388 1440.226 757.000 1438.827 757.000 C 1438.372 757.000 1437.999 757.113 1437.998 757.250 "/></g>
<g fill="#000000FD">
<path d="M 573.879 719.885 L 569.709 724.055 582.105 732.897 C 588.922 737.759 594.810 741.459 595.188 741.119 C 595.722 740.639 581.179 718.846 578.611 716.278 C 578.302 715.969 576.173 717.592 573.879 719.885 "/></g>
<g fill="#000000FD">
<path d="M 631.323 747.343 C 618.684 749.582 616.105 750.526 620.132 751.440 C 623.624 752.233 646.534 756.000 647.861 756.000 C 648.575 756.000 649.000 753.947 649.000 750.500 C 649.000 745.144 648.928 745.002 646.250 745.093 C 644.738 745.143 638.021 746.156 631.323 747.343 "/></g>
<g fill="#000000FD">
<path d="M 1395.000 743.978 L 1395.000 750.091 1398.250 749.561 C 1424.317 745.315 1425.000 745.176 1425.000 744.124 C 1425.000 743.664 1419.038 742.285 1411.750 741.061 C 1404.463 739.836 1397.713 738.617 1396.750 738.350 C 1395.221 737.927 1395.000 738.638 1395.000 743.978 "/></g>
<g fill="#000000FD">
<path d="M 622.599 728.032 C 617.870 734.650 614.000 740.323 614.000 740.639 C 614.000 741.869 617.730 739.640 628.721 731.843 L 640.149 723.736 636.371 719.868 C 634.294 717.741 632.280 716.000 631.896 716.000 C 631.513 716.000 627.329 721.415 622.599 728.032 "/></g>
<g fill="#000000FD">
<path d="M 1407.225 713.268 C 1405.451 715.098 1404.000 716.867 1404.000 717.198 C 1404.000 717.814 1427.683 735.000 1428.532 735.000 C 1429.960 735.000 1428.195 731.926 1420.941 721.776 C 1416.508 715.574 1412.334 710.374 1411.666 710.220 C 1410.997 710.066 1408.999 711.437 1407.225 713.268 "/></g>
<g fill="#000000FD">
<path d="M 1461.297 714.150 C 1451.593 727.414 1447.855 733.065 1448.166 733.997 C 1448.483 734.948 1472.206 718.707 1472.762 717.158 C 1472.906 716.757 1471.266 714.712 1469.117 712.614 L 1465.211 708.800 1461.297 714.150 "/></g>
<g fill="#000000FD">
<path d="M 1433.000 701.731 C 1433.000 705.225 1437.315 729.528 1438.090 730.395 C 1438.530 730.887 1439.134 730.212 1439.433 728.895 C 1440.230 725.391 1444.000 702.474 1444.000 701.139 C 1444.000 700.425 1441.947 700.000 1438.500 700.000 C 1433.952 700.000 1433.000 700.299 1433.000 701.731 "/></g>
<g fill="#000000FD">
<path d="M 619.614 768.250 C 630.652 784.003 631.388 785.000 631.990 785.000 C 632.322 785.000 634.305 783.247 636.397 781.105 L 640.200 777.211 634.850 773.297 C 622.282 764.102 616.170 760.000 615.040 760.000 C 614.376 760.000 616.435 763.713 619.614 768.250 "/></g>
<g fill="#000000FD">
<path d="M 582.785 768.296 C 576.342 772.808 571.054 776.974 571.035 777.554 C 570.992 778.853 577.235 785.013 578.548 784.966 C 579.449 784.934 596.000 761.808 596.000 760.580 C 596.000 759.276 593.975 760.459 582.785 768.296 "/></g>
<g fill="#000000FD">
<path d="M 1416.500 761.685 C 1409.900 766.372 1404.624 770.722 1404.777 771.353 C 1404.929 771.984 1406.675 773.948 1408.657 775.718 L 1412.260 778.937 1421.036 766.718 C 1425.862 759.998 1429.516 754.199 1429.156 753.832 C 1428.795 753.465 1423.100 756.999 1416.500 761.685 "/></g>
<g fill="#000000FD">
<path d="M 1448.167 753.926 C 1449.049 756.378 1464.633 777.914 1465.554 777.954 C 1466.848 778.010 1473.013 771.771 1472.966 770.452 C 1472.932 769.512 1449.781 753.000 1448.496 753.000 C 1448.132 753.000 1447.983 753.417 1448.167 753.926 "/></g>
<g fill="#000000FD">
<path d="M 599.352 709.750 C 599.633 711.263 600.376 715.650 601.003 719.500 C 603.082 732.276 604.134 737.000 604.898 737.000 C 605.313 737.000 606.667 731.038 607.905 723.750 C 609.144 716.463 610.377 709.713 610.646 708.750 C 611.073 707.220 610.362 707.000 604.988 707.000 L 598.841 707.000 599.352 709.750 "/></g>
<g fill="#000000FD">
<path d="M 1465.751 740.441 C 1454.069 742.478 1450.950 743.373 1452.083 744.364 C 1452.313 744.565 1459.138 745.841 1467.250 747.201 L 1482.000 749.673 1482.000 743.836 C 1482.000 737.001 1483.582 737.331 1465.751 740.441 "/></g>
<g fill="#000000FD">
<path d="M 601.890 779.000 L 599.358 794.000 605.179 794.000 C 608.380 794.000 611.000 793.712 611.000 793.361 C 611.000 792.431 607.069 768.903 606.470 766.250 C 605.404 761.526 604.339 764.491 601.890 779.000 "/></g>
<g fill="#E00410FD">
<path d="M 1613.187 600.806 L 1613.036 611.500 1617.403 614.649 L 1621.771 617.798 1622.375 614.149 C 1624.149 603.417 1622.471 596.545 1617.162 592.806 L 1613.338 590.113 1613.187 600.806 "/></g>
<g fill="#D9D9D9FD">
<path d="M 1062.527 460.956 C 1061.949 461.891 1062.537 462.152 1064.711 461.926 C 1065.102 461.885 1065.664 462.492 1065.961 463.275 C 1066.733 465.313 1078.041 474.292 1078.836 473.498 C 1079.201 473.132 1079.500 473.260 1079.500 473.782 C 1079.500 474.990 1085.773 480.894 1086.396 480.271 C 1086.652 480.015 1087.451 480.749 1088.171 481.903 C 1088.892 483.056 1089.993 484.000 1090.618 484.000 C 1091.243 484.000 1092.311 484.670 1092.991 485.489 C 1093.671 486.308 1094.626 486.731 1095.113 486.430 C 1095.601 486.129 1096.056 486.359 1096.125 486.941 C 1096.350 488.845 1096.747 490.016 1096.908 489.250 C 1096.995 488.838 1097.952 489.562 1099.033 490.861 C 1100.115 492.159 1101.000 492.877 1101.000 492.456 C 1101.000 492.035 1101.824 492.436 1102.831 493.347 C 1103.838 494.259 1104.927 494.740 1105.250 494.417 C 1105.573 494.093 1106.340 494.767 1106.954 495.914 C 1107.568 497.061 1108.448 498.000 1108.909 498.000 C 1109.370 498.000 1111.712 499.796 1114.114 501.991 C 1116.515 504.187 1119.835 506.651 1121.490 507.469 C 1123.146 508.286 1124.163 508.965 1123.750 508.977 C 1122.355 509.020 1126.988 513.000 1128.433 513.000 C 1129.221 513.000 1130.120 513.788 1130.431 514.750 C 1131.006 516.529 1136.000 519.465 1136.000 518.025 C 1136.000 517.141 1129.951 512.324 1128.683 512.198 C 1128.233 512.154 1126.658 510.787 1125.183 509.162 C 1123.707 507.537 1120.416 504.653 1117.870 502.754 C 1115.323 500.854 1111.140 497.545 1108.574 495.400 C 1106.008 493.255 1103.592 491.473 1103.204 491.439 C 1102.817 491.406 1100.532 489.512 1098.128 487.230 C 1095.723 484.948 1093.473 483.116 1093.128 483.159 C 1091.162 483.402 1090.030 482.848 1090.250 481.750 C 1090.388 481.063 1089.938 480.613 1089.250 480.750 C 1088.563 480.888 1088.000 480.381 1088.000 479.625 C 1088.000 478.869 1086.538 477.529 1084.750 476.648 C 1082.963 475.767 1081.926 475.035 1082.447 475.023 C 1082.968 475.010 1081.393 473.540 1078.947 471.755 C 1076.501 469.971 1073.222 467.383 1071.660 466.005 C 1066.955 461.854 1063.241 459.801 1062.527 460.956 "/></g>
<g fill="#D9D9D9FD">
<path d="M 1159.020 537.524 C 1159.716 538.362 1160.518 538.815 1160.803 538.531 C 1161.088 538.246 1161.954 538.917 1162.729 540.023 C 1163.503 541.129 1164.633 541.727 1165.238 541.353 C 1165.946 540.915 1166.113 541.263 1165.706 542.324 C 1165.357 543.233 1165.393 543.928 1165.786 543.870 C 1167.869 543.559 1169.037 544.132 1168.405 545.155 C 1167.990 545.825 1168.128 546.039 1168.732 545.666 C 1169.305 545.312 1170.329 545.692 1171.009 546.511 C 1171.689 547.330 1172.977 548.007 1173.872 548.015 C 1175.289 548.029 1175.305 548.157 1174.000 549.000 C 1172.712 549.832 1172.743 549.972 1174.217 549.985 C 1175.161 549.993 1177.511 551.578 1179.439 553.506 C 1183.389 557.456 1185.821 557.834 1196.282 556.128 C 1197.678 555.900 1198.817 551.559 1197.809 550.306 C 1197.090 549.413 1196.237 549.391 1194.424 550.217 C 1193.091 550.824 1192.000 551.699 1192.000 552.161 C 1192.000 552.622 1191.663 552.888 1191.250 552.750 C 1190.838 552.613 1190.275 552.925 1190.000 553.444 C 1188.882 555.556 1182.179 553.845 1178.190 550.431 C 1175.986 548.544 1173.973 547.000 1173.717 547.000 C 1173.461 547.000 1171.539 545.431 1169.445 543.514 C 1167.352 541.596 1165.468 540.199 1165.259 540.408 C 1165.050 540.617 1163.802 539.711 1162.485 538.394 C 1159.784 535.693 1156.900 534.969 1159.020 537.524 "/></g>
<g fill="#D9D9D9FD">
<path d="M 746.485 662.750 C 746.918 663.605 746.152 664.039 744.059 664.125 C 740.914 664.254 738.809 664.608 739.250 664.935 C 740.059 665.535 755.830 666.302 783.250 667.075 C 784.213 667.102 785.000 667.570 785.000 668.114 C 785.000 668.681 787.248 668.975 790.250 668.802 C 794.116 668.580 795.500 668.104 795.500 667.000 C 795.500 665.753 793.942 665.552 786.250 665.808 C 781.163 665.977 777.000 665.729 777.000 665.258 C 777.000 664.786 772.401 664.529 766.781 664.687 C 761.160 664.844 755.108 664.572 753.332 664.081 C 751.080 663.460 749.971 663.539 749.666 664.345 C 749.390 665.075 748.608 664.764 747.541 663.500 C 746.612 662.400 746.137 662.063 746.485 662.750 "/></g>
<g fill="#94959CFD">
<path d="M 794.401 499.769 C 795.052 504.863 794.924 505.249 790.537 511.396 C 788.042 514.893 786.000 517.994 786.000 518.288 C 786.000 518.582 788.712 518.975 792.026 519.161 C 797.991 519.497 798.048 519.474 797.540 517.000 C 797.258 515.625 796.528 510.225 795.917 505.000 C 795.306 499.775 794.563 495.275 794.267 495.000 C 793.971 494.725 794.032 496.871 794.401 499.769 "/></g>
<g fill="#000000FD">
<path d="M 564.618 733.997 C 563.728 736.221 563.000 738.191 563.000 738.375 C 563.000 738.685 580.359 741.471 582.413 741.491 C 583.204 741.499 579.231 738.629 568.892 731.726 L 566.236 729.953 564.618 733.997 "/></g>
<g fill="#000000FD">
<path d="M 615.585 718.124 C 614.667 723.143 614.080 727.413 614.281 727.614 C 614.782 728.115 625.000 713.395 625.000 712.174 C 625.000 711.309 619.890 709.000 617.978 709.000 C 617.580 709.000 616.503 713.106 615.585 718.124 "/></g>
<g fill="#000000FD">
<path d="M 1423.721 774.376 C 1417.967 782.377 1417.951 782.419 1420.221 783.582 C 1426.601 786.853 1426.580 786.872 1428.093 776.770 C 1428.857 771.672 1429.486 767.239 1429.491 766.920 C 1429.496 766.600 1426.899 769.956 1423.721 774.376 "/></g>
<g fill="#000000FD">
<path d="M 1450.565 704.250 C 1446.808 722.127 1446.989 722.707 1453.500 713.633 C 1456.525 709.417 1459.000 705.727 1459.000 705.433 C 1459.000 704.927 1452.648 702.000 1451.551 702.000 C 1451.269 702.000 1450.825 703.013 1450.565 704.250 "/></g>
<g fill="#000000FD">
<path d="M 1468.473 758.386 C 1475.677 763.458 1478.000 764.735 1478.000 763.622 C 1478.000 763.414 1478.663 761.658 1479.473 759.720 L 1480.945 756.196 1474.223 755.061 C 1459.084 752.504 1459.652 752.176 1468.473 758.386 "/></g>
<g fill="#000000FD">
<path d="M 635.263 735.225 C 631.282 738.048 628.194 740.527 628.399 740.733 C 628.817 741.151 646.069 738.265 646.654 737.679 C 647.239 737.095 644.060 729.995 643.237 730.045 C 642.831 730.070 639.243 732.401 635.263 735.225 "/></g>
<g fill="#000000FD">
<path d="M 1468.526 728.789 L 1460.552 734.500 1470.276 733.030 C 1476.964 732.020 1480.000 731.146 1480.000 730.231 C 1480.000 729.009 1477.240 722.950 1476.724 723.039 C 1476.601 723.060 1472.912 725.648 1468.526 728.789 "/></g>
<g fill="#000000FD">
<path d="M 1398.490 726.677 C 1397.671 728.639 1397.000 730.599 1397.000 731.032 C 1397.000 731.465 1400.038 732.327 1403.750 732.947 C 1416.613 735.097 1416.664 735.047 1407.940 728.805 L 1399.981 723.110 1398.490 726.677 "/></g>
<g fill="#000000FD">
<path d="M 587.156 710.530 L 583.812 711.983 588.567 718.741 C 591.182 722.459 593.812 726.125 594.411 726.889 C 595.132 727.808 595.021 725.023 594.081 718.639 C 593.281 713.212 592.189 709.017 591.581 709.039 C 590.986 709.061 588.995 709.732 587.156 710.530 "/></g>
<g fill="#000000FD">
<path d="M 1421.500 703.672 C 1419.850 704.548 1418.343 705.399 1418.150 705.565 C 1417.958 705.731 1420.198 709.300 1423.129 713.497 C 1426.059 717.695 1428.604 720.688 1428.783 720.150 C 1428.963 719.612 1428.410 715.483 1427.555 710.975 C 1426.700 706.467 1426.000 702.604 1426.000 702.390 C 1426.000 701.654 1424.495 702.083 1421.500 703.672 "/></g>
<g fill="#D9D9D9FD">
<path d="M 757.954 681.028 C 757.164 681.517 755.388 681.682 754.008 681.395 C 751.919 680.961 751.783 681.055 753.195 681.956 C 754.199 682.597 761.822 683.132 771.896 683.269 C 783.900 683.432 789.270 683.868 790.151 684.750 C 790.838 685.438 793.673 685.993 796.450 685.985 C 800.079 685.974 801.078 685.697 800.000 685.000 C 798.793 684.220 798.951 684.028 800.809 684.015 C 802.097 684.007 802.845 684.442 802.500 685.000 C 802.160 685.550 802.359 686.000 802.941 686.000 C 804.173 686.000 804.280 684.989 803.224 683.329 C 802.738 682.564 799.365 682.192 793.490 682.255 C 777.951 682.423 762.561 681.810 760.946 680.958 C 760.091 680.508 758.745 680.539 757.954 681.028 "/></g>
<g fill="#000000FD">
<path d="M 615.936 782.141 C 616.796 787.200 618.032 791.515 618.682 791.730 C 619.332 791.945 621.268 791.396 622.983 790.509 L 626.101 788.896 621.405 782.198 C 614.164 771.871 614.190 771.871 615.936 782.141 "/></g>
<g fill="#000000FD">
<path d="M 1448.060 767.027 C 1448.093 767.837 1448.880 772.391 1449.810 777.148 L 1451.500 785.795 1455.250 784.291 C 1457.313 783.463 1459.000 782.464 1459.000 782.071 C 1459.000 781.678 1456.525 777.801 1453.500 773.455 C 1450.475 769.109 1448.027 766.216 1448.060 767.027 "/></g>
<g fill="#000000FD">
<path d="M 634.055 764.571 C 644.075 771.677 643.726 771.592 645.490 767.369 C 646.335 765.347 646.823 763.490 646.576 763.242 C 645.986 762.653 632.070 760.003 629.555 760.001 C 628.285 760.000 629.848 761.587 634.055 764.571 "/></g>
<g fill="#000000FD">
<path d="M 572.054 761.604 C 567.958 762.352 564.291 763.085 563.904 763.232 C 563.025 763.566 565.941 771.000 566.950 771.000 C 568.548 771.000 582.404 760.546 581.000 760.400 C 580.175 760.314 576.149 760.856 572.054 761.604 "/></g>
<g fill="#000000FD">
<path d="M 1406.500 754.885 C 1401.550 755.653 1397.317 756.439 1397.094 756.631 C 1396.870 756.823 1397.494 758.769 1398.480 760.955 L 1400.273 764.931 1407.690 759.803 C 1411.770 756.983 1415.196 754.408 1415.304 754.082 C 1415.412 753.755 1411.450 754.117 1406.500 754.885 "/></g>
<g fill="#000000FD">
<path d="M 590.084 781.074 C 587.288 785.056 585.000 788.658 585.000 789.079 C 585.000 789.979 591.922 792.411 592.588 791.745 C 593.254 791.079 596.041 774.708 595.569 774.236 C 595.349 774.015 592.880 777.093 590.084 781.074 "/></g>
<g fill="#D9D9D9FD">
<path d="M 738.160 645.307 C 737.176 646.492 738.967 646.802 749.748 647.314 C 756.762 647.647 767.411 648.156 773.413 648.444 C 779.416 648.733 785.153 649.231 786.163 649.552 C 788.233 650.209 788.797 647.610 786.845 646.405 C 786.095 645.941 785.964 646.133 786.471 646.953 C 787.041 647.875 786.696 648.038 785.189 647.560 C 782.748 646.785 761.585 645.825 751.195 646.018 C 746.792 646.099 743.316 645.677 742.445 644.954 C 741.305 644.008 740.997 644.044 740.985 645.128 C 740.972 646.230 740.808 646.245 740.146 645.203 C 739.480 644.152 739.102 644.172 738.160 645.307 "/></g>
<g fill="#696969FD">
<path d="M 1104.750 550.235 C 1102.688 552.418 1101.000 554.383 1101.000 554.602 C 1101.000 555.230 1116.601 555.066 1117.236 554.431 C 1117.778 553.888 1109.697 545.856 1108.888 546.133 C 1108.675 546.207 1106.813 548.052 1104.750 550.235 "/></g>
<g fill="#D9D9D9FD">
<path d="M 1062.882 448.250 C 1062.816 448.938 1062.836 450.061 1062.924 450.746 C 1063.013 451.431 1062.166 452.978 1061.043 454.184 C 1059.919 455.390 1059.000 455.897 1059.000 455.311 C 1059.000 454.725 1059.670 453.689 1060.489 453.009 C 1061.308 452.329 1061.724 451.362 1061.413 450.859 C 1061.102 450.356 1059.771 451.532 1058.454 453.472 C 1057.138 455.413 1056.523 457.000 1057.089 457.000 C 1057.655 457.000 1057.780 457.563 1057.367 458.250 C 1056.870 459.077 1057.197 459.029 1058.332 458.107 C 1059.276 457.342 1060.337 457.004 1060.691 457.357 C 1061.044 457.711 1060.718 458.000 1059.967 458.000 C 1058.917 458.000 1058.873 458.273 1059.780 459.180 C 1061.337 460.737 1065.292 458.691 1067.041 455.424 C 1067.734 454.128 1068.642 453.279 1069.057 453.536 C 1069.473 453.792 1069.582 453.117 1069.299 452.034 C 1068.715 449.801 1066.000 447.134 1066.000 448.794 C 1066.000 449.366 1066.563 450.060 1067.250 450.338 C 1068.190 450.717 1068.167 450.862 1067.156 450.921 C 1066.417 450.964 1065.577 450.100 1065.290 449.000 C 1064.712 446.792 1063.068 446.280 1062.882 448.250 "/></g>
<g fill="#696969FD">
<path d="M 735.000 652.047 C 735.000 652.402 735.619 653.999 736.375 655.596 C 737.132 657.193 738.333 659.886 739.044 661.579 C 740.075 664.036 740.811 664.568 742.683 664.210 C 746.079 663.561 746.214 662.782 743.898 657.209 C 742.052 652.768 741.427 652.152 738.408 651.799 C 736.533 651.581 735.000 651.692 735.000 652.047 "/></g>
<g fill="#696969FD">
<path d="M 744.939 670.748 C 743.615 671.024 743.767 671.874 745.939 676.339 C 748.223 681.034 748.770 681.539 751.000 681.007 C 753.881 680.319 753.967 679.815 752.061 674.834 C 750.690 671.249 748.516 670.002 744.939 670.748 "/></g>
<g fill="#696969FD">
<path d="M 729.000 635.653 C 729.000 636.082 729.736 638.361 730.636 640.717 C 732.036 644.383 732.684 645.000 735.136 645.000 C 738.418 645.000 738.449 644.884 736.585 639.500 C 735.417 636.128 734.713 635.451 732.100 635.187 C 730.395 635.014 729.000 635.224 729.000 635.653 "/></g>
</svg>
